
<svg width="92" height="92" viewBox="0 0 92 92" fill="none" xmlns="http://www.w3.org/2000/svg">
<circle cx="46" cy="46" r="46" fill="#065AF1"/>
<path d="M55.6507 63.9167H36.3507C31.784 63.9167 28.084 60.2 28.084 55.6333V43.2833C28.084 41.0167 29.484 38.1667 31.284 36.7667L40.2673 29.7667C42.9673 27.6667 47.284 27.5667 50.084 29.5333L60.384 36.75C62.3673 38.1333 63.9173 41.1 63.9173 43.5167V55.65C63.9173 60.2 60.2173 63.9167 55.6507 63.9167ZM41.8006 31.7333L32.8173 38.7333C31.634 39.6667 30.584 41.7833 30.584 43.2833V55.6333C30.584 58.8167 33.1673 61.4167 36.3507 61.4167H55.6507C58.834 61.4167 61.4173 58.8333 61.4173 55.65V43.5167C61.4173 41.9167 60.2673 39.7 58.9507 38.8L48.6507 31.5833C46.7507 30.25 43.6173 30.3167 41.8006 31.7333Z" fill="white"/>
<path d="M46 57.25C45.3167 57.25 44.75 56.6833 44.75 56V51C44.75 50.3167 45.3167 49.75 46 49.75C46.6833 49.75 47.25 50.3167 47.25 51V56C47.25 56.6833 46.6833 57.25 46 57.25Z" fill="white"/>
</svg>
