
<svg width="92" height="92" viewBox="0 0 92 92" fill="none" xmlns="http://www.w3.org/2000/svg">
<circle cx="46" cy="46" r="46" fill="#065AF1"/>
<path d="M55.7835 62.45C55.2668 62.45 54.7501 62.3167 54.2835 62.0333L47.6001 58.0667C46.9001 58.05 46.2001 58 45.5335 57.9C45.0835 57.8334 44.7001 57.5333 44.5335 57.1C44.3668 56.6666 44.4501 56.2 44.7501 55.85C45.8501 54.5666 46.4168 53.0333 46.4168 51.4C46.4168 47.3667 42.8668 44.0833 38.5001 44.0833C36.8668 44.0833 35.3001 44.5334 33.9834 45.4C33.6168 45.6334 33.1668 45.6667 32.7668 45.4834C32.3835 45.3 32.1001 44.9333 32.0501 44.5C32.0001 44.0333 31.9668 43.5667 31.9668 43.0834C31.9668 34.8167 39.1335 28.1 47.9335 28.1C56.7335 28.1 63.9001 34.8167 63.9001 43.0834C63.9001 47.6167 61.8001 51.7833 58.1001 54.6333L58.6668 59.1667C58.8001 60.3001 58.3001 61.3667 57.3501 61.9834C56.8835 62.2834 56.3335 62.45 55.7835 62.45ZM47.9168 55.55C48.1501 55.5333 48.3835 55.6001 48.5835 55.7334L55.5668 59.8834C55.7501 60 55.9001 59.95 56.0001 59.8834C56.0835 59.8334 56.2168 59.7 56.1835 59.4667L55.5335 54.2C55.4835 53.7333 55.6835 53.2834 56.0501 53.0167C59.4501 50.6334 61.4001 47 61.4001 43.05C61.4001 36.1667 55.3668 30.5667 47.9335 30.5667C40.7835 30.5667 34.9168 35.7667 34.4835 42.3001C35.7335 41.8167 37.0835 41.55 38.4835 41.55C44.2335 41.55 48.9001 45.95 48.9001 51.3666C48.9168 52.8333 48.5668 54.25 47.9168 55.55Z" fill="white"/>
<path d="M33.633 63.9168C33.1996 63.9168 32.7829 63.8002 32.3996 63.5502C31.6496 63.0668 31.2496 62.2335 31.3496 61.3502L31.683 58.7834C29.433 56.9501 28.0996 54.2334 28.0996 51.3834C28.0996 48.1334 29.7996 45.1001 32.6496 43.2834C34.3663 42.1668 36.3996 41.5668 38.5163 41.5668C44.2663 41.5668 48.9329 45.9668 48.9329 51.3834C48.9329 53.5834 48.1329 55.7501 46.6663 57.4668C44.7829 59.7501 41.9663 61.0834 38.8663 61.1834L34.7996 63.6001C34.433 63.8168 34.033 63.9168 33.633 63.9168ZM38.4996 44.0668C36.8663 44.0668 35.2996 44.5168 33.9829 45.3835C31.8496 46.7501 30.583 48.9834 30.583 51.3834C30.583 53.7001 31.7163 55.8168 33.7163 57.1835C34.0996 57.4502 34.2996 57.9001 34.2496 58.3668L33.8829 61.2168L37.8663 58.8502C38.0663 58.7335 38.283 58.6667 38.4996 58.6667C40.9496 58.6667 43.2663 57.6168 44.733 55.8335C45.833 54.5335 46.4163 53.0001 46.4163 51.3667C46.4163 47.3501 42.8663 44.0668 38.4996 44.0668Z" fill="white"/>
</svg>
