
<svg width="379" height="383" viewBox="0 0 379 383" fill="none" xmlns="http://www.w3.org/2000/svg">
<path d="M31.4902 158.783L54.3317 164.854" stroke="#065AF1" stroke-width="2.89132"/>
<path d="M232.727 321.275L244.581 347.586" stroke="#065AF1" stroke-width="2.89132"/>
<rect width="144.566" height="144.566" transform="matrix(0.323091 0.946368 -0.658033 0.752989 142.694 54.4283)" fill="white"/>
<rect width="144.566" height="144.566" transform="matrix(0.323091 0.946368 -0.981124 -0.193379 284.602 82.4455)" fill="#EAF1F9"/>
<rect width="144.566" height="144.566" transform="matrix(0.981124 0.193379 -0.658033 0.752989 189.472 191.302)" fill="#D6E2EE"/>
<path d="M136.217 32.6831L299.916 64.6245L300.739 64.7847L301.009 65.5786L354.576 223.289L354.845 224.078L354.296 224.706L244.83 349.809L244.28 350.437L243.462 350.275L80.4277 318.001L79.6094 317.839L79.3398 317.049L25.4395 159.006L25.1699 158.215L25.7207 157.586L134.854 33.149L135.401 32.524L136.217 32.6831ZM83.5176 315.664L243.203 347.277L350.663 224.463L190.713 193.389L83.5176 315.664ZM28.4453 158.865L81.293 313.817L188.533 191.489L135.383 36.9283L28.4453 158.865ZM191.269 190.551L350.939 221.572L298.54 67.3013L138.122 36.0005L191.269 190.551Z" fill="#065AF1"/>
<circle cx="189.935" cy="192.033" r="5.78264" fill="#065AF1"/>
<circle cx="82.9555" cy="315.781" r="5.78264" fill="#065AF1"/>
<circle cx="351.271" cy="223.259" r="5.78264" fill="#065AF1"/>
<circle cx="136.157" cy="35.3232" r="5.78264" fill="#065AF1"/>
<circle cx="244.157" cy="348.323" r="5.78264" fill="#065AF1"/>
<circle cx="299.157" cy="65.3232" r="5.78264" fill="#065AF1"/>
<circle cx="28.0209" cy="157.915" r="5.78264" fill="#065AF1"/>
</svg>
