
<svg width="102" height="18" viewBox="0 0 102 18" fill="none" xmlns="http://www.w3.org/2000/svg">
<path d="M6.92676 10.2539L9.30176 4.35156L8.07422 1.29492H11.1113L14.6006 9.89746L17.2275 1.29492H20.5176L14.5283 17.3584L10.8389 8.17676L6.53516 17.4004L0.291992 1.29492H3.87695L6.92676 10.2539ZM84.4893 1.02148C85.5296 1.02148 86.4506 1.16174 87.252 1.44238C88.0534 1.72308 88.7077 2.02485 89.2139 2.34766L88.0117 5.23145C87.6603 4.96483 87.189 4.69178 86.5986 4.41113C86.0222 4.1164 85.354 3.96875 84.5947 3.96875C84.0043 3.96877 83.435 4.09507 82.8867 4.34766C82.3524 4.58625 81.874 4.92978 81.4521 5.37891C81.0444 5.828 80.7214 6.35455 80.4824 6.95801C80.2434 7.54739 80.1241 8.19291 80.124 8.89453C80.124 9.63827 80.2296 10.3191 80.4404 10.9365C80.6654 11.554 80.981 12.088 81.3887 12.5371C81.7964 12.9722 82.2823 13.3093 82.8447 13.5479C83.4211 13.7863 84.0683 13.9053 84.7852 13.9053C85.6145 13.9052 86.3246 13.7725 86.915 13.5059C87.5056 13.2392 87.9553 12.9578 88.2646 12.6631L89.5303 15.4004C89.3615 15.5407 89.045 15.7302 88.5811 15.9688C88.1311 16.2073 87.5758 16.4181 86.915 16.6006C86.2543 16.783 85.523 16.8666 84.7217 16.8525C83.4986 16.8245 82.4017 16.6071 81.4316 16.2002C80.4755 15.7791 79.6593 15.2109 78.9844 14.4951C78.3236 13.7794 77.8183 12.9575 77.4668 12.0312C77.1154 11.1051 76.9395 10.1159 76.9395 9.06348C76.9395 7.88453 77.1153 6.80375 77.4668 5.82129C77.8324 4.83886 78.345 3.98921 79.0059 3.27344C79.6807 2.55773 80.4822 2.0033 81.4102 1.61035C82.3381 1.2174 83.3645 1.02151 84.4893 1.02148ZM33.5059 16.6846H29.9629L28.7656 13.6523H23.6143L22.3496 16.6846H19.334L26.3359 0.579102H26.5039L33.5059 16.6846ZM40.4727 1.18945C41.4426 1.18949 42.3073 1.31577 43.0664 1.56836C43.8257 1.80696 44.4587 2.15794 44.9648 2.62109C45.485 3.0702 45.8784 3.61811 46.1455 4.26367C46.4126 4.89519 46.5459 5.61125 46.5459 6.41113C46.5459 7.04257 46.4478 7.67423 46.251 8.30566C46.0682 8.93716 45.7591 9.51299 45.3232 10.0322C44.9977 10.433 44.5868 10.7729 44.0938 11.0566L47.7061 16.6846H44.1416L40.8633 11.7578H38.8271V16.6846H35.7695V1.18945H40.4727ZM60.8154 4.13672H53.2861V7.44238H59.9502V10.3896H53.2861V13.7373H61.1104V16.6846H50.2275V1.18945H60.8154V4.13672ZM76.6963 16.6846H73.1533L71.9561 13.6523H66.8037L65.5391 16.6846H62.5234L69.5254 0.579102H69.6943L76.6963 16.6846ZM102 4.13672H98.2246V16.6846H95.167V4.13672H91.5391V1.18945H102V4.13672ZM24.6855 11.084H27.752L26.2607 7.30566L24.6855 11.084ZM67.875 11.084H70.9424L69.4502 7.30664L67.875 11.084ZM38.8271 8.81055H40.999C41.4629 8.81055 41.8499 8.73341 42.1592 8.5791C42.4685 8.42472 42.7082 8.22785 42.877 7.98926C43.0595 7.75086 43.1856 7.50534 43.2559 7.25293C43.3402 6.98626 43.3828 6.74019 43.3828 6.51562C43.3828 6.34736 43.355 6.13702 43.2988 5.88477C43.2566 5.6181 43.1576 5.35065 43.0029 5.08398C42.8483 4.81755 42.6092 4.59348 42.2861 4.41113C41.9768 4.22868 41.5548 4.13672 41.0205 4.13672H38.8271V8.81055Z" fill="white"/>
</svg>
