
<svg width="1155" height="185" viewBox="0 0 1155 185" fill="none" xmlns="http://www.w3.org/2000/svg">
<path opacity="0.5" d="M175.134 70.1621L209.828 9.87988H283.627L212.812 133.214L238.057 168.871L275.365 102.134H350.266L278.67 226.231L278.32 225.741L278.67 226.235L234.611 300.913L175.465 198.26L153.103 237.209L153.102 237.207L115.654 302L0 102.126H73.7979L115.681 173.464L175.063 70.2852H104.64V0H175.134V70.1621ZM437.296 160.473L455.227 115.913L445.954 92.8291H468.881L495.225 157.783L515.053 92.8291H539.89L494.673 214.108L466.828 144.794L434.332 214.427L387.205 92.8291H414.271L437.296 160.473ZM1022.81 90.7646C1030.67 90.7647 1037.62 91.8241 1043.67 93.9434C1049.72 96.0626 1054.66 98.3412 1058.48 100.778L1049.4 122.555C1046.75 120.541 1043.19 118.475 1038.73 116.355C1034.38 114.13 1029.34 113.018 1023.61 113.018C1019.15 113.018 1014.85 113.972 1010.71 115.879C1006.68 117.68 1003.07 120.277 999.886 123.668C996.808 127.059 994.367 131.033 992.562 135.589C990.758 140.039 989.856 144.914 989.855 150.212C989.855 155.828 990.652 160.968 992.244 165.631C993.942 170.293 996.33 174.32 999.408 177.711C1002.49 180.996 1006.15 183.539 1010.39 185.341C1014.75 187.142 1019.63 188.043 1025.04 188.043C1031.3 188.043 1036.66 187.036 1041.12 185.022C1045.58 183.009 1048.98 180.889 1051.31 178.664L1060.86 199.328C1059.59 200.388 1057.2 201.819 1053.7 203.62C1050.3 205.421 1046.11 207.011 1041.12 208.389C1036.13 209.766 1030.61 210.402 1024.56 210.296C1015.33 210.084 1007.05 208.441 999.727 205.368C992.509 202.189 986.353 197.897 981.259 192.493C976.27 187.089 972.448 180.89 969.795 173.896C967.141 166.903 965.815 159.432 965.814 151.484C965.814 142.583 967.141 134.423 969.795 127.006C972.555 119.588 976.429 113.177 981.418 107.772C986.513 102.368 992.562 98.1818 999.567 95.2148C1006.57 92.2479 1014.32 90.7647 1022.81 90.7646ZM637.94 209.021H611.192L602.158 186.133H563.263L553.717 209.021H530.949L583.808 87.4238H585.082L637.94 209.021ZM963.982 209.021H937.235L928.201 186.133H889.306L879.76 209.021H856.992L909.851 87.4238H911.124L963.982 209.021ZM690.526 92.0322C697.85 92.0323 704.378 92.9862 710.109 94.8936C715.841 96.695 720.618 99.3441 724.438 102.841C728.365 106.232 731.338 110.365 733.354 115.239C735.371 120.008 736.379 125.412 736.379 131.452C736.379 136.221 735.636 140.989 734.15 145.758C732.771 150.526 730.435 154.871 727.145 158.792C724.686 161.819 721.593 164.4 717.87 166.543L745.136 209.021H718.229L693.48 171.825H678.107V209.021H655.021V92.0322H690.526ZM844.095 114.285H787.256V139.24H837.567V161.494H787.256V186.767H846.323V209.021H764.17V92.0322H844.095V114.285ZM1155 114.285H1126.5V209.021H1103.42V114.285H1076.03V92.0322H1155V114.285ZM571.352 166.74H594.504L583.246 138.219L571.352 166.74ZM897.395 166.74H920.547L909.289 138.22L897.395 166.74ZM678.107 149.572H694.507C698.009 149.572 700.928 148.99 703.263 147.824C705.598 146.659 707.402 145.174 708.676 143.373C710.055 141.572 711.011 139.718 711.542 137.811C712.179 135.797 712.497 133.942 712.497 132.247C712.497 130.976 712.285 129.386 711.86 127.479C711.542 125.465 710.799 123.452 709.632 121.438C708.464 119.425 706.66 117.729 704.219 116.352C701.884 114.974 698.699 114.285 694.666 114.285H678.107V149.572Z" fill="url(#paint0_linear_551_590)" fill-opacity="0.1"/>
<defs>
<linearGradient id="paint0_linear_551_590" x1="577.501" y1="0" x2="577.501" y2="302" gradientUnits="userSpaceOnUse">
<stop stop-color="white"/>
<stop offset="1" stop-color="white" stop-opacity="0"/>
</linearGradient>
</defs>
</svg>
