<svg xmlns="http://www.w3.org/2000/svg" width="28" height="28" viewBox="0 0 28 28" fill="none">
  <path d="M18.8 2.3375C19.7127 2.34567 20.6148 2.53354 21.4549 2.89038C22.295 3.24722 23.0566 3.76604 23.6962 4.41722C24.3357 5.0684 24.8408 5.83918 25.1825 6.68555C25.5241 7.53192 25.6957 8.4373 25.6875 9.35V18.65C25.6957 19.5627 25.5241 20.4681 25.1825 21.3145C24.8408 22.1608 24.3357 22.9316 23.6962 23.5828C23.0566 24.234 22.295 24.7528 21.4549 25.1096C20.6148 25.4665 19.7127 25.6543 18.8 25.6625H9.2C8.2873 25.6543 7.38515 25.4665 6.54506 25.1096C5.70497 24.7528 4.9434 24.234 4.30383 23.5828C3.66426 22.9316 3.15922 22.1608 2.81754 21.3145C2.47587 20.4681 2.30426 19.5627 2.3125 18.65V9.35C2.30426 8.4373 2.47587 7.53192 2.81754 6.68555C3.15922 5.83918 3.66426 5.0684 4.30383 4.41722C4.9434 3.76604 5.70497 3.24722 6.54506 2.89038C7.38515 2.53354 8.2873 2.34567 9.2 2.3375H18.8ZM16.6375 11.5H18.025L15.175 14.6125C15.1428 14.6251 15.1072 14.6251 15.075 14.6125C15.0633 14.6181 15.0505 14.6209 15.0375 14.6209C15.0245 14.6209 15.0117 14.6181 15 14.6125L13.2 13.15C12.8658 12.8844 12.4519 12.7391 12.025 12.7375C11.7744 12.7357 11.5262 12.7858 11.296 12.8848C11.0658 12.9838 10.8586 13.1294 10.6875 13.3125L7.8875 16.175C7.72558 16.3428 7.63509 16.5668 7.63509 16.8C7.63509 17.0332 7.72558 17.2572 7.8875 17.425C7.9671 17.5114 8.06373 17.5803 8.17131 17.6274C8.27888 17.6746 8.39505 17.6989 8.5125 17.6989C8.62995 17.6989 8.74612 17.6746 8.85369 17.6274C8.96127 17.5803 9.0579 17.5114 9.1375 17.425L11.9375 14.5125C11.9659 14.503 11.9966 14.503 12.025 14.5125H12.1L13.9125 15.975C14.237 16.2506 14.6493 16.4013 15.075 16.4C15.3341 16.3984 15.59 16.3432 15.8267 16.2378C16.0633 16.1324 16.2756 15.979 16.45 15.7875L19.15 12.75V14C19.15 14.1149 19.1726 14.2287 19.2166 14.3348C19.2606 14.441 19.325 14.5375 19.4063 14.6187C19.4875 14.7 19.584 14.7644 19.6902 14.8084C19.7963 14.8524 19.9101 14.875 20.025 14.875C20.1399 14.875 20.2537 14.8524 20.3598 14.8084C20.466 14.7644 20.5625 14.7 20.6437 14.6187C20.725 14.5375 20.7894 14.441 20.8334 14.3348C20.8774 14.2287 20.9 14.1149 20.9 14V10.55C20.9017 10.4334 20.8803 10.3177 20.8373 10.2094C20.7942 10.1011 20.7302 10.0023 20.6489 9.91876C20.5677 9.83518 20.4707 9.76843 20.3637 9.72232C20.2566 9.6762 20.1416 9.65163 20.025 9.65H16.6375C16.4187 9.67593 16.217 9.78123 16.0706 9.94596C15.9242 10.1107 15.8434 10.3234 15.8434 10.5437C15.8434 10.7641 15.9242 10.9768 16.0706 11.1415C16.217 11.3063 16.4187 11.4116 16.6375 11.4375M18.8 0.5625H9.2C6.89891 0.592088 4.7021 1.52701 3.08541 3.16475C1.46872 4.8025 0.56231 7.01122 0.5625 9.3125V18.6125C0.56231 20.9138 1.46872 23.1225 3.08541 24.7602C4.7021 26.398 6.89891 27.3329 9.2 27.3625H18.8C21.1011 27.3329 23.2979 26.398 24.9146 24.7602C26.5313 23.1225 27.4377 20.9138 27.4375 18.6125V9.35C27.4377 7.04872 26.5313 4.84 24.9146 3.20225C23.2979 1.56451 21.1011 0.629588 18.8 0.6V0.5625Z" fill="#5E6278"/>
</svg>