<svg xmlns="http://www.w3.org/2000/svg" width="28" height="28" viewBox="0 0 28 28" fill="none">
  <path d="M18.8 2.3375C19.7127 2.34567 20.6148 2.53354 21.4549 2.89038C22.295 3.24722 23.0566 3.76604 23.6962 4.41722C24.3357 5.0684 24.8408 5.83918 25.1825 6.68555C25.5241 7.53192 25.6957 8.4373 25.6875 9.35V18.65C25.6957 19.5627 25.5241 20.4681 25.1825 21.3145C24.8408 22.1608 24.3357 22.9316 23.6962 23.5828C23.0566 24.234 22.295 24.7528 21.4549 25.1096C20.6148 25.4665 19.7127 25.6543 18.8 25.6625H9.2C8.2873 25.6543 7.38515 25.4665 6.54506 25.1096C5.70497 24.7528 4.9434 24.234 4.30383 23.5828C3.66426 22.9316 3.15922 22.1608 2.81754 21.3145C2.47587 20.4681 2.30426 19.5627 2.3125 18.65V9.35C2.30426 8.4373 2.47587 7.53192 2.81754 6.68555C3.15922 5.83918 3.66426 5.0684 4.30383 4.41722C4.9434 3.76604 5.70497 3.24722 6.54506 2.89038C7.38515 2.53354 8.2873 2.34567 9.2 2.3375H18.8ZM17.25 7.4875H18.125C15.8426 10.2103 12.5949 11.9439 9.0625 12.325C8.82712 12.325 8.60138 12.4185 8.43494 12.5849C8.2685 12.7514 8.175 12.9771 8.175 13.2125C8.175 13.4479 8.2685 13.6736 8.43494 13.8401C8.60138 14.0065 8.82712 14.1 9.0625 14.1C12.9155 13.7357 16.488 11.9272 19.0625 9.0375V9.3625C19.0625 9.59456 19.1547 9.81712 19.3188 9.98122C19.4829 10.1453 19.7054 10.2375 19.9375 10.2375C20.1696 10.2375 20.3921 10.1453 20.5562 9.98122C20.7203 9.81712 20.8125 9.59456 20.8125 9.3625V6.6C20.8125 6.6 20.8125 6.6 20.8125 6.525V6.35C20.7971 6.29792 20.7761 6.24763 20.75 6.2C20.7284 6.14979 20.6988 6.10337 20.6625 6.0625L20.55 5.925H20.4625C20.4132 5.84733 20.3379 5.78972 20.25 5.7625C20.1924 5.74958 20.1326 5.74958 20.075 5.7625H19.9875H17.25C17.0312 5.78842 16.8295 5.89373 16.6831 6.05846C16.5367 6.22319 16.4559 6.43589 16.4559 6.65625C16.4559 6.87661 16.5367 7.08931 16.6831 7.25404C16.8295 7.41877 17.0312 7.52408 17.25 7.55M19.975 22.625C20.091 22.625 20.2058 22.602 20.3128 22.5572C20.4197 22.5125 20.5168 22.4469 20.5982 22.3643C20.6796 22.2817 20.7438 22.1838 20.787 22.0762C20.8302 21.9686 20.8517 21.8535 20.85 21.7375V13.725C20.85 13.6101 20.8274 13.4963 20.7834 13.3902C20.7394 13.284 20.675 13.1875 20.5937 13.1063C20.5125 13.025 20.416 12.9606 20.3098 12.9166C20.2037 12.8726 20.0899 12.85 19.975 12.85C19.8601 12.85 19.7463 12.8726 19.6402 12.9166C19.534 12.9606 19.4375 13.025 19.3563 13.1063C19.275 13.1875 19.2106 13.284 19.1666 13.3902C19.1226 13.4963 19.1 13.6101 19.1 13.725V21.675C19.0983 21.791 19.1198 21.9061 19.163 22.0137C19.2062 22.1213 19.2704 22.2192 19.3518 22.3018C19.4332 22.3844 19.5303 22.45 19.6372 22.4947C19.7442 22.5395 19.859 22.5625 19.975 22.5625M14.425 22.5625C14.541 22.5625 14.6558 22.5395 14.7628 22.4947C14.8697 22.45 14.9668 22.3844 15.0482 22.3018C15.1296 22.2192 15.1938 22.1213 15.237 22.0137C15.2802 21.9061 15.3017 21.791 15.3 21.675V16.85C15.3 16.6179 15.2078 16.3954 15.0437 16.2313C14.8796 16.0672 14.6571 15.975 14.425 15.975C14.1929 15.975 13.9704 16.0672 13.8063 16.2313C13.6422 16.3954 13.55 16.6179 13.55 16.85V21.675C13.5483 21.791 13.5698 21.9061 13.613 22.0137C13.6562 22.1213 13.7204 22.2192 13.8018 22.3018C13.8832 22.3844 13.9803 22.45 14.0872 22.4947C14.1942 22.5395 14.309 22.5625 14.425 22.5625ZM8.8 22.5625C8.91597 22.5625 9.03078 22.5395 9.13776 22.4947C9.24474 22.45 9.34176 22.3844 9.42318 22.3018C9.5046 22.2192 9.56879 22.1213 9.61202 22.0137C9.65525 21.9061 9.67666 21.791 9.675 21.675V18.3375C9.68976 18.2147 9.6783 18.0901 9.64139 17.972C9.60447 17.8539 9.54294 17.745 9.46084 17.6525C9.37874 17.5599 9.27795 17.4858 9.16511 17.4351C9.05228 17.3843 8.92997 17.3581 8.80625 17.3581C8.68253 17.3581 8.56022 17.3843 8.44739 17.4351C8.33455 17.4858 8.23376 17.5599 8.15166 17.6525C8.06956 17.745 8.00803 17.8539 7.97111 17.972C7.9342 18.0901 7.92274 18.2147 7.9375 18.3375V21.675C7.93585 21.7899 7.95685 21.904 7.9993 22.0108C8.04175 22.1176 8.10482 22.215 8.18492 22.2974C8.26501 22.3798 8.36055 22.4457 8.46609 22.4911C8.57163 22.5366 8.68509 22.5609 8.8 22.5625ZM18.8 0.5625H9.2C6.89891 0.592088 4.7021 1.52701 3.08541 3.16475C1.46872 4.8025 0.56231 7.01122 0.5625 9.3125V18.6125C0.56231 20.9138 1.46872 23.1225 3.08541 24.7602C4.7021 26.398 6.89891 27.3329 9.2 27.3625H18.8C21.1011 27.3329 23.2979 26.398 24.9146 24.7602C26.5313 23.1225 27.4377 20.9138 27.4375 18.6125V9.35C27.4377 7.04872 26.5313 4.84 24.9146 3.20225C23.2979 1.56451 21.1011 0.629588 18.8 0.6V0.5625Z" fill="#3E97FF"/>
</svg>