<svg xmlns="http://www.w3.org/2000/svg" width="19" height="18" viewBox="0 0 19 18" fill="none">
  <path d="M12.5906 17.9251H6.34896C4.80186 17.9251 3.31813 17.3105 2.22417 16.2165C1.13021 15.1226 0.515625 13.6388 0.515625 12.0917V5.87508C0.515625 4.32799 1.13021 2.84425 2.22417 1.75029C3.31813 0.65633 4.80186 0.041748 6.34896 0.041748H12.5906C14.1377 0.041748 15.6215 0.65633 16.7154 1.75029C17.8094 2.84425 18.424 4.32799 18.424 5.87508V12.0917C18.424 13.6388 17.8094 15.1226 16.7154 16.2165C15.6215 17.3105 14.1377 17.9251 12.5906 17.9251ZM6.34896 1.32508C5.14213 1.32728 3.98523 1.80709 3.1311 2.65967C2.27696 3.51224 1.79503 4.66826 1.79062 5.87508V12.0917C1.79061 13.303 2.27006 14.465 3.1242 15.3238C3.97834 16.1827 5.13772 16.6685 6.34896 16.6751H12.5906C13.1947 16.6773 13.7933 16.5605 14.3522 16.3313C14.9112 16.1022 15.4195 15.7652 15.8482 15.3396C16.2769 14.914 16.6176 14.4081 16.8508 13.8508C17.084 13.2936 17.2051 12.6958 17.2073 12.0917V5.87508C17.2029 5.27319 17.0801 4.67804 16.8457 4.12363C16.6113 3.56923 16.27 3.06641 15.8413 2.6439C15.4126 2.22139 14.9049 1.88746 14.3471 1.66118C13.7894 1.43489 13.1925 1.32069 12.5906 1.32508H6.34896ZM14.374 3.26675C14.2091 3.26675 14.048 3.31562 13.911 3.40719C13.7739 3.49876 13.6671 3.62891 13.6041 3.78118C13.541 3.93345 13.5245 4.10101 13.5566 4.26266C13.5888 4.42431 13.6682 4.57279 13.7847 4.68934C13.9012 4.80588 14.0497 4.88525 14.2114 4.9174C14.373 4.94956 14.5406 4.93305 14.6929 4.86998C14.8451 4.80691 14.9753 4.7001 15.0668 4.56306C15.1584 4.42602 15.2073 4.2649 15.2073 4.10008C15.2073 3.87907 15.1195 3.66711 14.9632 3.51083C14.8069 3.35455 14.595 3.26675 14.374 3.26675ZM9.49896 12.6001C8.78024 12.6034 8.07676 12.3929 7.47791 11.9955C6.87906 11.5981 6.41187 11.0316 6.13569 10.3681C5.85951 9.70452 5.78681 8.97386 5.92684 8.2689C6.06686 7.56395 6.41328 6.91652 6.92208 6.4089C7.43088 5.90127 8.0791 5.55635 8.78438 5.41795C9.48966 5.27956 10.2202 5.35395 10.8831 5.63166C11.546 5.90937 12.1114 6.37788 12.5074 6.97765C12.9034 7.57741 13.1122 8.28137 13.1073 9.00008C13.0986 9.9536 12.7153 10.8655 12.0403 11.539C11.3652 12.2124 10.4525 12.5936 9.49896 12.6001ZM9.49896 6.60842C9.02924 6.60513 8.5691 6.7412 8.17672 6.99943C7.78434 7.25766 7.47735 7.62644 7.29456 8.05914C7.11176 8.49184 7.06139 8.96902 7.14979 9.43035C7.2382 9.89168 7.46142 10.3164 7.79123 10.6509C8.12104 10.9854 8.54262 11.2145 9.00266 11.3094C9.46271 11.4043 9.94055 11.3606 10.3758 11.1839C10.811 11.0072 11.1841 10.7054 11.4478 10.3167C11.7115 9.92798 11.854 9.4698 11.8573 9.00008C11.8574 8.37151 11.61 7.76817 11.1686 7.32059C10.7273 6.87302 10.1275 6.61718 9.49896 6.60842Z" fill="white"/>
</svg>