<svg xmlns="http://www.w3.org/2000/svg" width="28" height="26" viewBox="0 0 28 26" fill="none">
  <path d="M19.075 0.6875H8.925C6.70814 0.690806 4.58303 1.57291 3.01547 3.14047C1.44791 4.70803 0.565806 6.83314 0.5625 9.05V16.95C0.565806 19.1669 1.44791 21.292 3.01547 22.8595C4.58303 24.4271 6.70814 25.3092 8.925 25.3125H19.075C21.2919 25.3092 23.417 24.4271 24.9845 22.8595C26.5521 21.292 27.4342 19.1669 27.4375 16.95V9.05C27.4342 6.83314 26.5521 4.70803 24.9845 3.14047C23.417 1.57291 21.2919 0.690806 19.075 0.6875ZM25.6875 16.9375C25.6875 18.6912 24.9908 20.3732 23.7507 21.6132C22.5107 22.8533 20.8287 23.55 19.075 23.55H8.925C7.17126 23.55 5.48934 22.8533 4.24926 21.6132C3.00917 20.3732 2.3125 18.6912 2.3125 16.9375V9.05C2.3125 7.29626 3.00917 5.61434 4.24926 4.37426C5.48934 3.13417 7.17126 2.4375 8.925 2.4375H19.075C20.8287 2.4375 22.5107 3.13417 23.7507 4.37426C24.9908 5.61434 25.6875 7.29626 25.6875 9.05V16.9375ZM11.675 13.1875C12.3816 12.7303 12.9213 12.0568 13.2135 11.2676C13.5058 10.4783 13.5349 9.61575 13.2965 8.80861C13.0582 8.00148 12.5651 7.29311 11.891 6.78928C11.2169 6.28546 10.3978 6.01322 9.55625 6.01322C8.71465 6.01322 7.89564 6.28546 7.22151 6.78928C6.54738 7.29311 6.05432 8.00148 5.81595 8.80861C5.57758 9.61575 5.6067 10.4783 5.89896 11.2676C6.19122 12.0568 6.73093 12.7303 7.4375 13.1875C6.58251 13.3455 5.80291 13.7795 5.21816 14.4229C4.6334 15.0664 4.27575 15.8838 4.2 16.75C4.2 16.9821 4.29219 17.2046 4.45628 17.3687C4.62038 17.5328 4.84294 17.625 5.075 17.625C5.30706 17.625 5.52962 17.5328 5.69372 17.3687C5.85781 17.2046 5.95 16.9821 5.95 16.75C5.95 15.775 7.425 14.6875 9.55 14.6875C11.675 14.6875 13.1625 15.775 13.1625 16.75C13.1625 16.9821 13.2547 17.2046 13.4188 17.3687C13.5829 17.5328 13.8054 17.625 14.0375 17.625C14.2696 17.625 14.4921 17.5328 14.6562 17.3687C14.8203 17.2046 14.9125 16.9821 14.9125 16.75C14.8373 15.8823 14.4801 15.0631 13.8955 14.4175C13.3109 13.772 12.531 13.3356 11.675 13.175V13.1875ZM9.55 7.775C9.97628 7.77253 10.3937 7.89684 10.7492 8.13213C11.1046 8.36742 11.3821 8.70307 11.5464 9.09644C11.7107 9.48981 11.7543 9.92313 11.6718 10.3414C11.5892 10.7596 11.3842 11.1438 11.0827 11.4452C10.7813 11.7467 10.3971 11.9517 9.97885 12.0343C9.56063 12.1168 9.12731 12.0732 8.73394 11.9089C8.34057 11.7446 8.00492 11.4671 7.76963 11.1117C7.53434 10.7562 7.41003 10.3388 7.4125 9.9125C7.41578 9.34661 7.64203 8.80483 8.04218 8.40468C8.44233 8.00453 8.98411 7.77828 9.55 7.775ZM22.5 15.5C22.5 15.7321 22.4078 15.9546 22.2437 16.1187C22.0796 16.2828 21.8571 16.375 21.625 16.375H17.55C17.3179 16.375 17.0954 16.2828 16.9313 16.1187C16.7672 15.9546 16.675 15.7321 16.675 15.5C16.675 15.2679 16.7672 15.0454 16.9313 14.8813C17.0954 14.7172 17.3179 14.625 17.55 14.625H21.625C21.8571 14.625 22.0796 14.7172 22.2437 14.8813C22.4078 15.0454 22.5 15.2679 22.5 15.5ZM22.95 11.025C22.95 11.2571 22.8578 11.4796 22.6937 11.6437C22.5296 11.8078 22.3071 11.9 22.075 11.9H15.825C15.5929 11.9 15.3704 11.8078 15.2063 11.6437C15.0422 11.4796 14.95 11.2571 14.95 11.025C14.95 10.7929 15.0422 10.5704 15.2063 10.4063C15.3704 10.2422 15.5929 10.15 15.825 10.15H22.075C22.3061 10.1532 22.5267 10.2465 22.6901 10.4099C22.8535 10.5733 22.9468 10.7939 22.95 11.025Z" fill="#3E97FF"/>
</svg>