
<svg width="248" height="208" viewBox="0 0 248 208" fill="none" xmlns="http://www.w3.org/2000/svg">
<g style="mix-blend-mode:overlay" opacity="0.6">
<ellipse cx="1.33628" cy="1.33756" rx="1.33628" ry="1.33756" transform="matrix(-0.970238 -0.242154 0.24169 -0.970353 170.747 130.27)" fill="white" fill-opacity="0.5"/>
<ellipse opacity="0.81" cx="0.726936" cy="0.727256" rx="0.726936" ry="0.727256" transform="matrix(-0.838401 -0.545054 0.544224 -0.83894 99.7158 123.758)" fill="white"/>
<ellipse opacity="0.98" cx="1.31416" cy="1.31277" rx="1.31416" ry="1.31277" transform="matrix(-0.104423 0.994533 -0.994511 -0.104634 126.441 131.971)" fill="white"/>
<ellipse opacity="0.93" cx="0.809407" cy="0.808968" rx="0.809407" ry="0.808968" transform="matrix(-0.499618 0.866246 -0.865805 -0.500382 200.049 128.451)" fill="white"/>
<ellipse opacity="0.94" cx="0.762433" cy="0.762123" rx="0.762433" ry="0.762123" transform="matrix(-0.558802 0.829301 -0.828774 -0.559584 107.921 139.538)" fill="white" fill-opacity="0.5"/>
<ellipse opacity="0.96" cx="140.459" cy="145.452" rx="1.12644" ry="1.12522" transform="rotate(-90 140.459 145.452)" fill="white" fill-opacity="0.5"/>
<ellipse opacity="0.76" cx="1.12643" cy="1.12523" rx="1.12643" ry="1.12523" transform="matrix(0.0870677 0.996202 -0.996187 0.0872438 214.115 127.806)" fill="white"/>
<ellipse opacity="0.87" cx="0.950361" cy="0.94947" rx="0.950361" ry="0.94947" transform="matrix(-0.258573 0.965992 -0.96586 -0.259065 145.194 168.226)" fill="white"/>
<ellipse opacity="0.79" cx="0.962156" cy="0.96113" rx="0.962156" ry="0.96113" transform="matrix(0.0870677 -0.996202 0.996187 0.0872438 190.672 165.879)" fill="white"/>
<ellipse opacity="0.85" cx="0.843966" cy="0.844773" rx="0.843966" ry="0.844773" transform="matrix(0.970238 0.242154 -0.24169 0.970353 103.232 176.967)" fill="white"/>
<ellipse opacity="0.87" cx="1.09069" cy="1.0906" rx="1.09069" ry="1.0906" transform="matrix(-0.681627 0.7317 -0.731007 -0.68237 178.013 175.793)" fill="white"/>
<ellipse cx="1.36005" cy="1.3607" rx="1.36005" ry="1.3607" transform="matrix(0.847806 -0.530307 0.529531 0.84829 202.394 180.486)" fill="white"/>
<ellipse opacity="0.72" cx="1.17282" cy="1.17265" rx="1.17282" ry="1.17265" transform="matrix(-0.655679 -0.75504 0.754379 -0.656439 168.636 208)" fill="white" fill-opacity="0.5"/>
<ellipse opacity="0.85" cx="1.24254" cy="1.24366" rx="1.24254" ry="1.24366" transform="matrix(-0.956221 -0.292644 0.2921 -0.956388 191.845 191.574)" fill="white"/>
<ellipse opacity="0.86" cx="0.84472" cy="0.844019" rx="0.84472" ry="0.844019" transform="matrix(-0.341713 -0.939804 0.939581 -0.342328 136.989 179.196)" fill="white" fill-opacity="0.5"/>
<ellipse opacity="0.98" cx="0.727316" cy="0.726876" rx="0.727316" ry="0.726876" transform="matrix(-0.469099 0.883146 -0.882749 -0.469844 189.5 183.889)" fill="white" fill-opacity="0.5"/>
<ellipse opacity="0.94" cx="1.24243" cy="1.24377" rx="1.24243" ry="1.24377" transform="matrix(-0.997559 -0.0698272 0.0696858 -0.997569 149.883 193.803)" fill="white"/>
<ellipse opacity="0.76" cx="1.39629" cy="1.39482" rx="1.39629" ry="1.39482" transform="matrix(-0.104423 -0.994533 0.994511 -0.104634 166.059 189.109)" fill="white"/>
<ellipse cx="1.4855" cy="1.48692" rx="1.4855" ry="1.48692" transform="matrix(0.970238 0.242154 -0.24169 0.970353 48.4282 133.407)" fill="white" fill-opacity="0.5"/>
<ellipse opacity="0.81" cx="0.808112" cy="0.808468" rx="0.808112" ry="0.808468" transform="matrix(0.838401 0.545054 -0.544224 0.83894 127.391 140.646)" fill="white"/>
<ellipse opacity="0.98" cx="1.46091" cy="1.45936" rx="1.46091" ry="1.45936" transform="matrix(0.104423 -0.994533 0.994511 0.104634 97.6812 131.517)" fill="white"/>
<ellipse opacity="0.93" cx="0.899792" cy="0.899305" rx="0.899792" ry="0.899305" transform="matrix(0.499618 -0.866246 0.865805 0.500382 15.8535 135.43)" fill="white"/>
<ellipse opacity="0.94" cx="0.847573" cy="0.847229" rx="0.847573" ry="0.847229" transform="matrix(0.558802 -0.829301 0.828774 0.559584 118.271 123.104)" fill="white" fill-opacity="0.5"/>
<ellipse opacity="0.96" cx="82.0987" cy="116.53" rx="1.25222" ry="1.25087" transform="rotate(90 82.0987 116.53)" fill="white" fill-opacity="0.5"/>
<ellipse opacity="0.76" cx="1.25221" cy="1.25088" rx="1.25221" ry="1.25088" transform="matrix(-0.0870677 -0.996202 0.996187 -0.0872438 0.218262 136.146)" fill="white"/>
<ellipse opacity="0.87" cx="1.05649" cy="1.0555" rx="1.05649" ry="1.0555" transform="matrix(0.258573 -0.965992 0.96586 0.259065 76.834 91.2129)" fill="white"/>
<ellipse opacity="0.79" cx="1.0696" cy="1.06846" rx="1.0696" ry="1.06846" transform="matrix(-0.0870677 0.996202 -0.996187 -0.0872438 26.2773 93.8213)" fill="white"/>
<ellipse opacity="0.85" cx="0.938211" cy="0.939108" rx="0.938211" ry="0.939108" transform="matrix(-0.970238 -0.242154 0.24169 -0.970353 123.482 81.4951)" fill="white"/>
<ellipse opacity="0.87" cx="1.21248" cy="1.21239" rx="1.21248" ry="1.21239" transform="matrix(0.681627 -0.7317 0.731007 0.68237 40.3511 82.7998)" fill="white"/>
<ellipse cx="1.51193" cy="1.51264" rx="1.51193" ry="1.51264" transform="matrix(-0.847806 0.530307 -0.529531 -0.84829 13.2466 77.583)" fill="white"/>
<ellipse opacity="0.72" cx="1.30379" cy="1.3036" rx="1.30379" ry="1.3036" transform="matrix(0.655679 0.75504 -0.754379 0.656439 50.7749 46.9971)" fill="white" fill-opacity="0.5"/>
<ellipse opacity="0.85" cx="1.38129" cy="1.38254" rx="1.38129" ry="1.38254" transform="matrix(0.956221 0.292644 -0.2921 0.956388 24.9736 65.2568)" fill="white"/>
<ellipse opacity="0.86" cx="0.939049" cy="0.93827" rx="0.939049" ry="0.93827" transform="matrix(0.341713 0.939804 -0.939581 0.342328 85.9541 79.0176)" fill="white" fill-opacity="0.5"/>
<ellipse opacity="0.98" cx="0.808535" cy="0.808045" rx="0.808535" ry="0.808045" transform="matrix(0.469099 -0.883146 0.882749 0.469844 27.5806 73.7998)" fill="white" fill-opacity="0.5"/>
<ellipse opacity="0.94" cx="1.38117" cy="1.38266" rx="1.38117" ry="1.38266" transform="matrix(0.997559 0.0698272 -0.0696858 0.997569 71.6216 62.7793)" fill="white"/>
<ellipse opacity="0.76" cx="1.55222" cy="1.55057" rx="1.55222" ry="1.55057" transform="matrix(0.104423 0.994533 -0.994511 0.104634 53.6396 67.9961)" fill="white"/>
<ellipse cx="1.84782" cy="1.84959" rx="1.84782" ry="1.84959" transform="matrix(-0.970238 -0.242154 0.24169 -0.970353 187.761 11.7871)" fill="white" fill-opacity="0.5"/>
<ellipse opacity="0.81" cx="1.00522" cy="1.00566" rx="1.00522" ry="1.00566" transform="matrix(-0.838401 -0.545054 0.544224 -0.83894 89.5391 2.7832)" fill="white"/>
<ellipse opacity="0.98" cx="1.81723" cy="1.81531" rx="1.81723" ry="1.81531" transform="matrix(-0.104423 0.994533 -0.994511 -0.104634 126.494 14.1396)" fill="white"/>
<ellipse opacity="0.93" cx="1.11926" cy="1.11865" rx="1.11926" ry="1.11865" transform="matrix(-0.499618 0.866246 -0.865805 -0.500382 228.28 9.27246)" fill="white"/>
<ellipse opacity="0.94" cx="1.0543" cy="1.05387" rx="1.0543" ry="1.05387" transform="matrix(-0.558802 0.829301 -0.828774 -0.559584 100.883 24.6045)" fill="white" fill-opacity="0.5"/>
<ellipse opacity="0.96" cx="145.877" cy="32.7812" rx="1.55765" ry="1.55596" transform="rotate(-90 145.877 32.7812)" fill="white" fill-opacity="0.5"/>
<ellipse opacity="0.76" cx="1.55764" cy="1.55597" rx="1.55764" ry="1.55597" transform="matrix(0.0870677 0.996202 -0.996187 0.0872438 247.729 8.37988)" fill="white"/>
<ellipse opacity="0.87" cx="1.31417" cy="1.31294" rx="1.31417" ry="1.31294" transform="matrix(-0.258573 0.965992 -0.96586 -0.259065 152.426 64.2734)" fill="white"/>
<ellipse opacity="0.79" cx="1.33048" cy="1.32906" rx="1.33048" ry="1.32906" transform="matrix(0.0870677 -0.996202 0.996187 0.0872438 215.313 61.0283)" fill="white"/>
<ellipse opacity="0.85" cx="1.16705" cy="1.16816" rx="1.16705" ry="1.16816" transform="matrix(0.970238 0.242154 -0.24169 0.970353 94.4004 76.3613)" fill="white"/>
<ellipse opacity="0.87" cx="1.50821" cy="1.5081" rx="1.50821" ry="1.5081" transform="matrix(-0.681627 0.7317 -0.731007 -0.68237 197.807 74.7383)" fill="white"/>
<ellipse cx="1.88069" cy="1.88159" rx="1.88069" ry="1.88159" transform="matrix(0.847806 -0.530307 0.529531 0.84829 231.522 81.2285)" fill="white"/>
<ellipse opacity="0.72" cx="1.62179" cy="1.62155" rx="1.62179" ry="1.62155" transform="matrix(-0.655679 -0.75504 0.754379 -0.656439 184.841 119.273)" fill="white" fill-opacity="0.5"/>
<ellipse opacity="0.85" cx="1.7182" cy="1.71974" rx="1.7182" ry="1.71974" transform="matrix(-0.956221 -0.292644 0.2921 -0.956388 216.936 96.5605)" fill="white"/>
<ellipse opacity="0.86" cx="1.16809" cy="1.16712" rx="1.16809" ry="1.16712" transform="matrix(-0.341713 -0.939804 0.939581 -0.342328 141.082 79.4434)" fill="white" fill-opacity="0.5"/>
<ellipse opacity="0.98" cx="1.00574" cy="1.00513" rx="1.00574" ry="1.00513" transform="matrix(-0.469099 0.883146 -0.882749 -0.469844 213.692 85.9336)" fill="white" fill-opacity="0.5"/>
<ellipse opacity="0.94" cx="1.71805" cy="1.71989" rx="1.71805" ry="1.71989" transform="matrix(-0.997559 -0.0698272 0.0696858 -0.997569 158.909 99.6426)" fill="white"/>
<ellipse opacity="0.76" cx="1.93081" cy="1.92877" rx="1.93081" ry="1.92877" transform="matrix(-0.104423 -0.994533 0.994511 -0.104634 181.277 93.1523)" fill="white"/>
</g>
</svg>
