<svg xmlns="http://www.w3.org/2000/svg" width="18" height="18" viewBox="0 0 18 18" fill="none">
  <path d="M9.00052 17.9666C8.35397 17.9684 7.71851 17.7987 7.15885 17.475L2.57552 14.8333C2.01866 14.5089 1.55642 14.0443 1.23479 13.4859C0.913151 12.9274 0.743322 12.2944 0.742188 11.65V6.34997C0.743322 5.7055 0.913151 5.07255 1.23479 4.51407C1.55642 3.9556 2.01866 3.49105 2.57552 3.16663L7.15885 0.524967C7.71879 0.201687 8.35396 0.0314941 9.00052 0.0314941C9.64708 0.0314941 10.2822 0.201687 10.8422 0.524967L15.4255 3.16663C15.9824 3.49105 16.4446 3.9556 16.7663 4.51407C17.0879 5.07255 17.2577 5.7055 17.2589 6.34997V11.65C17.2577 12.2944 17.0879 12.9274 16.7663 13.4859C16.4446 14.0443 15.9824 14.5089 15.4255 14.8333L10.8422 17.475C10.283 17.7998 9.64723 17.9696 9.00052 17.9666ZM9.00052 1.29997C8.57461 1.30016 8.15581 1.40916 7.78385 1.61663L3.16719 4.24997C2.8061 4.46812 2.50793 4.7764 2.30193 5.14456C2.09594 5.51272 1.9892 5.92811 1.99219 6.34997V11.65C1.9892 12.0718 2.09594 12.4872 2.30193 12.8554C2.50793 13.2235 2.8061 13.5318 3.16719 13.75L7.75052 16.4C8.12254 16.6072 8.54133 16.716 8.96719 16.716C9.39304 16.716 9.81183 16.6072 10.1839 16.4L14.8339 13.75C15.2011 13.536 15.506 13.2295 15.718 12.861C15.93 12.4926 16.0418 12.0751 16.0422 11.65V6.34997C16.0418 5.92488 15.93 5.50733 15.718 5.13889C15.506 4.77044 15.2011 4.46396 14.8339 4.24997L10.2505 1.59997C9.86871 1.38692 9.43771 1.27773 9.00052 1.2833V1.29997Z" fill="#F1416C"/>
  <path d="M9.0013 10.1667C9.22232 10.1667 9.43428 10.0789 9.59056 9.92262C9.74684 9.76634 9.83464 9.55438 9.83464 9.33337V5.45003C9.83464 5.22902 9.74684 5.01706 9.59056 4.86078C9.43428 4.7045 9.22232 4.6167 9.0013 4.6167C8.78029 4.6167 8.56833 4.7045 8.41205 4.86078C8.25577 5.01706 8.16797 5.22902 8.16797 5.45003V9.33337C8.16797 9.55438 8.25577 9.76634 8.41205 9.92262C8.56833 10.0789 8.78029 10.1667 9.0013 10.1667Z" fill="#F1416C"/>
  <path d="M8.9987 13.3834C9.57399 13.3834 10.0404 12.917 10.0404 12.3417C10.0404 11.7664 9.57399 11.3 8.9987 11.3C8.4234 11.3 7.95703 11.7664 7.95703 12.3417C7.95703 12.917 8.4234 13.3834 8.9987 13.3834Z" fill="#F1416C"/>
</svg>