<svg xmlns="http://www.w3.org/2000/svg" width="164" height="197" viewBox="0 0 164 197" fill="none">
  <path d="M43.3867 16.121L60.7905 75.4656L82.9641 30.3877L105.181 75.4656L125.893 16.121" fill="white"/>
  <path d="M60.275 81.3958L41.3242 16.7225L45.4495 15.5193L61.3063 69.5784L82.9643 25.5318L104.837 69.9222L123.874 15.4333L127.913 16.8514L105.525 81.009L82.9643 35.2436L60.275 81.3958Z" fill="black"/>
  <path d="M156.317 59.1362L155.5 53.7217L150.215 52.3036L155.629 51.5301L157.047 46.2445L157.864 51.659L163.15 53.0771L157.735 53.8506L156.317 59.1362Z" fill="black"/>
  <path d="M10.5552 12.941L9.73868 7.5265L4.45312 6.15138L9.86762 5.3349L11.2857 0.0493164L12.0592 5.46381L17.3448 6.88191L11.9303 7.65541L10.5552 12.941Z" fill="black"/>
  <path d="M111.325 12.9409L110.852 9.67505L107.629 8.8156L110.938 8.34289L111.797 5.16296L112.27 8.42884L115.45 9.28829L112.184 9.76097L111.325 12.9409Z" fill="black"/>
  <path d="M96.887 196.475L96.4143 193.209L93.1914 192.35L96.4573 191.877L97.3167 188.654L97.7894 191.92L101.012 192.78L97.7465 193.252L96.887 196.475Z" fill="black"/>
  <path d="M120.948 116.719C120.948 116.719 109.604 114.828 104.619 103.612C99.6341 92.3966 106.424 84.9195 94.4344 76.1102C82.4452 67.3009 82.1874 83.3295 82.4452 87.4549C82.703 91.5802 76.6439 153.116 100.579 159.734C124.601 166.309 120.948 116.719 120.948 116.719Z" fill="#F05050"/>
  <path d="M91.7099 106.378L91.2734 107.591L98.2683 110.108L98.7048 108.895L91.7099 106.378Z" fill="white"/>
  <path d="M84.5078 94.1157L84.4648 92.8265C86.8283 92.7406 88.6761 91.8811 90.0083 90.3341C93.0593 86.6815 92.2858 80.2786 92.2858 80.2356L93.5749 80.0637C93.6179 80.3645 94.4344 87.0682 91.0396 91.1506C89.4067 92.9984 87.258 93.9868 84.5078 94.1157Z" fill="white"/>
  <path d="M137.665 186.205C137.665 186.205 103.588 193.854 80.9844 166.739C80.9844 166.739 106.811 97.2526 112.01 80.6653C117.21 64.078 122.753 45.1703 133.153 45.8578C143.552 46.5454 134.657 69.5785 134.657 69.5785C134.657 69.5785 151.545 72.5006 150.9 81.4389C150.9 81.4389 170.796 86.8104 160.526 119.555C150.299 152.3 137.665 186.205 137.665 186.205Z" fill="#F05050"/>
  <path d="M150.622 81.092L142.996 107.516L144.235 107.874L151.861 81.4495L150.622 81.092Z" fill="white"/>
  <path d="M134.36 69.2105L125.406 99.5001L126.643 99.8656L135.597 69.576L134.36 69.2105Z" fill="white"/>
  <path d="M133.712 62.7458C132.294 62.7458 129.715 62.445 128.254 60.4683C126.578 58.1908 126.836 54.4952 129.114 49.4674L130.274 49.9831C128.254 54.4952 127.911 57.847 129.286 59.6948C130.919 61.8864 134.528 61.4567 134.528 61.4137L134.7 62.7029C134.657 62.7029 134.27 62.7458 133.712 62.7458Z" fill="white"/>
  <path d="M41.6246 116.203C41.6246 116.203 54.4303 115.859 59.9737 104.902C65.5172 93.9436 61.4348 84.3608 70.2441 77.0555C81.1591 67.9884 82.1045 84.9194 81.5888 89.0448C81.0731 93.1701 83.8663 154.921 59.587 160.25C35.3506 165.535 41.6246 116.203 41.6246 116.203Z" fill="#F05050"/>
  <path d="M76.363 108.153L69.2344 110.263L69.6002 111.499L76.7289 109.389L76.363 108.153Z" fill="white"/>
  <path d="M79.2244 95.5766C76.5171 95.3188 74.3685 94.2015 72.9074 92.2677C69.6845 88.0135 70.8877 81.3098 70.9307 81.052L72.1769 81.2669C72.1769 81.3098 71.0166 87.6697 73.8958 91.4943C75.142 93.1272 76.9468 94.0726 79.2673 94.2875L79.2244 95.5766Z" fill="white"/>
  <path d="M21.8559 185.217C21.8559 185.217 55.4602 194.714 79.5246 168.887C79.5246 168.887 57.5658 98.0691 53.2686 81.2239C48.9714 64.3788 44.5022 45.2132 34.06 45.2991C23.6177 45.3851 31.2238 68.9339 31.2238 68.9339C31.2238 68.9339 14.2069 70.9106 14.3358 79.8918C14.3358 79.8918 -5.86121 84.189 2.60433 117.45C11.1128 150.667 21.8559 185.217 21.8559 185.217Z" fill="#F05050"/>
  <path d="M14.7056 79.6142L13.4492 79.9028L19.5974 106.665L20.8538 106.376L14.7056 79.6142Z" fill="white"/>
  <path d="M31.5943 68.5838L30.3398 68.8807L37.6138 99.6157L38.8683 99.3188L31.5943 68.5838Z" fill="white"/>
  <path d="M32.125 62.2731C31.8672 62.2731 31.6953 62.2731 31.6523 62.2731L31.7383 60.9839C31.7813 60.9839 35.391 61.2417 36.895 58.9642C38.1842 57.0305 37.6255 53.7216 35.391 49.3384L36.5512 48.7368C39.0866 53.6357 39.5593 57.3313 37.9693 59.6947C36.4223 62.0152 33.2853 62.2731 32.125 62.2731Z" fill="white"/>
  <path d="M53.2255 80.9661C53.2255 80.9661 49.1001 113.539 60.0151 104.859L53.2255 80.9661Z" fill="black"/>
  <path d="M104.621 103.569C104.621 103.569 115.278 107.265 112.055 81.1809L104.621 103.569Z" fill="black"/>
</svg>