<svg xmlns="http://www.w3.org/2000/svg" width="483" height="81" viewBox="0 0 483 81" fill="none">
<path d="M432.848 3.40002H482.448V17.4H464.548V77H450.048V17.4H432.848V3.40002Z" fill="black"/>
<path d="M423.321 70.9C422.521 71.5666 421.021 72.4666 418.821 73.6C416.688 74.7333 414.054 75.7333 410.921 76.6C407.788 77.4666 404.321 77.8666 400.521 77.8C394.721 77.6666 389.521 76.6333 384.921 74.7C380.388 72.7 376.521 70 373.321 66.6C370.188 63.2 367.788 59.3 366.121 54.9C364.454 50.5 363.621 45.8 363.621 40.8C363.621 35.2 364.454 30.0666 366.121 25.4C367.854 20.7333 370.288 16.7 373.421 13.3C376.621 9.89997 380.421 7.26664 384.821 5.39998C389.221 3.53331 394.088 2.59998 399.421 2.59998C404.354 2.59998 408.721 3.26664 412.521 4.59997C416.321 5.93331 419.421 7.36664 421.821 8.89997L416.121 22.6C414.454 21.3333 412.221 20.0333 409.421 18.7C406.688 17.3 403.521 16.6 399.921 16.6C397.121 16.6 394.421 17.2 391.821 18.4C389.288 19.5333 387.021 21.1666 385.021 23.3C383.088 25.4333 381.554 27.9333 380.421 30.8C379.288 33.6 378.721 36.6666 378.721 40C378.721 43.5333 379.221 46.7666 380.221 49.7C381.288 52.6333 382.788 55.1666 384.721 57.3C386.654 59.3666 388.954 60.9666 391.621 62.1C394.354 63.2333 397.421 63.8 400.821 63.8C404.754 63.8 408.121 63.1666 410.921 61.9C413.721 60.6333 415.854 59.3 417.321 57.9L423.321 70.9Z" fill="black"/>
<path d="M295.27 77L328.47 0.5H329.27L362.47 77H345.67L324.47 23.2L334.97 16L309.57 77H295.27ZM317.97 50.4H340.07L345.17 62.6H313.47L317.97 50.4Z" fill="black"/>
<path d="M236.969 3.40002H287.169V17.4H251.469V33.1H283.069V47.1H251.469V63H288.569V77H236.969V3.40002Z" fill="black"/>
<path d="M190.714 3.40002C195.314 3.40002 199.414 4.00002 203.014 5.20003C206.614 6.33336 209.614 8.00003 212.014 10.2C214.481 12.3334 216.347 14.9334 217.614 18C218.881 21 219.514 24.4 219.514 28.2C219.514 31.2 219.047 34.2 218.114 37.2C217.247 40.2 215.781 42.9334 213.714 45.4C211.714 47.8667 209.047 49.8667 205.714 51.4C202.381 52.8667 198.247 53.6 193.314 53.6H182.914V77H168.414V3.40002H190.714ZM193.214 39.6C195.414 39.6 197.247 39.2334 198.714 38.5C200.181 37.7667 201.314 36.8334 202.114 35.7C202.981 34.5667 203.581 33.4 203.914 32.2C204.314 30.9334 204.514 29.7667 204.514 28.7C204.514 27.9 204.381 26.9 204.114 25.7C203.914 24.4334 203.447 23.1667 202.714 21.9C201.981 20.6334 200.847 19.5667 199.314 18.7C197.847 17.8334 195.847 17.4 193.314 17.4H182.914V39.6H193.214ZM206.814 48.6L225.014 77H208.114L189.514 49L206.814 48.6Z" fill="black"/>
<path d="M90.4851 77L123.685 0.5H124.485L157.685 77H140.885L119.685 23.2L130.185 16L104.785 77H90.4851ZM113.185 50.4H135.285L140.385 62.6H108.685L113.185 50.4Z" fill="black"/>
<path d="M0.199951 3.90002H17.2L32.9 50.1L30.6 49.1L44.3 15L51 34.9L29.7999 80.4L0.199951 3.90002ZM37.1 3.90002H51.5L69.6 48.6L67 48.2L80.5 3.90002H96.1L67.7 80.2L37.1 3.90002Z" fill="black"/>
</svg>