
<svg width="92" height="16" viewBox="0 0 92 16" fill="none" xmlns="http://www.w3.org/2000/svg">
<path d="M6.24805 9.12807L8.39062 3.81753L7.2832 1.06557H10.0225L13.1699 8.80679L15.5391 1.06557H18.5068L13.1045 15.5226L9.77734 7.25991L5.89453 15.5597L0.263672 1.06557H3.49805L6.24805 9.12807ZM76.2061 0.818504C77.1444 0.818504 77.9755 0.94486 78.6982 1.19741C79.4211 1.45004 80.0112 1.72231 80.4678 2.01284L79.3828 4.60854C79.0658 4.3686 78.6409 4.12185 78.1084 3.86929C77.5886 3.60416 76.9864 3.47185 76.3018 3.47182C75.7691 3.47182 75.2553 3.58528 74.7607 3.81264C74.2788 4.02738 73.8473 4.33715 73.4668 4.74136C73.0992 5.14549 72.8073 5.61926 72.5918 6.16225C72.3763 6.69271 72.2686 7.27394 72.2686 7.90542C72.2686 8.57483 72.3635 9.18757 72.5537 9.74331C72.7566 10.299 73.0425 10.7786 73.4102 11.1828C73.7779 11.5743 74.2154 11.8782 74.7227 12.0929C75.2426 12.3076 75.826 12.4152 76.4727 12.4152C77.2209 12.4152 77.8619 12.2948 78.3945 12.0548C78.9269 11.8149 79.3324 11.5622 79.6113 11.297L80.7529 13.7599C80.6007 13.8862 80.315 14.0569 79.8965 14.2716C79.4908 14.4862 78.9902 14.6759 78.3945 14.84C77.7986 15.0042 77.1388 15.0801 76.416 15.0675C75.3127 15.0423 74.3233 14.846 73.4482 14.4796C72.5859 14.1007 71.8499 13.5897 71.2412 12.9455C70.6452 12.3013 70.1891 11.5622 69.8721 10.7287C69.555 9.89498 69.3965 9.00415 69.3965 8.05679C69.3965 6.99575 69.555 6.02302 69.8721 5.13882C70.2018 4.25468 70.6647 3.49002 71.2607 2.84585C71.8693 2.20193 72.5921 1.70336 73.4287 1.34975C74.2656 0.996118 75.1917 0.818552 76.2061 0.818504ZM30.2217 14.9162H27.0254L25.9463 12.1876H21.2988L20.1582 14.9162H17.4385L23.7539 0.421043H23.9062L30.2217 14.9162ZM36.5049 0.970848C37.3798 0.970873 38.16 1.08432 38.8447 1.31167C39.5294 1.5264 40.1002 1.84215 40.5566 2.25893C41.0258 2.66308 41.3811 3.15555 41.6221 3.73647C41.863 4.30479 41.9834 4.94925 41.9834 5.66909C41.9834 6.23751 41.8943 6.80672 41.7168 7.37514C41.5519 7.94342 41.2729 8.46159 40.8799 8.92886C40.5862 9.28954 40.2162 9.59636 39.7715 9.85171L43.0293 14.9162H39.8145L36.8574 10.4826H35.0205V14.9162H32.2627V0.970848H36.5049ZM54.8535 3.62319H48.0625V6.5978H54.0742V9.25014H48.0625V12.2628H55.1201V14.9162H45.3047V0.970848H54.8535V3.62319ZM69.1777 14.9162H65.9814L64.9023 12.1876H60.2549L59.1143 14.9162H56.3945L62.71 0.421043H62.8623L69.1777 14.9162ZM92.001 3.62319H88.5957V14.9162H85.8369V3.62319H82.5654V0.970848H92.001V3.62319ZM22.2656 9.87612H25.0322L23.6865 6.47475L22.2656 9.87612ZM61.2217 9.87612H63.9883L62.6426 6.47475L61.2217 9.87612ZM35.0205 7.82925H36.9805C37.3988 7.82921 37.7475 7.76012 38.0264 7.62124C38.3052 7.48239 38.5207 7.3055 38.6729 7.09097C38.8377 6.87623 38.9522 6.65427 39.0156 6.4269C39.0916 6.18707 39.1299 5.9658 39.1299 5.76382C39.1298 5.61231 39.1044 5.42262 39.0537 5.19546C39.0156 4.95557 38.9265 4.71562 38.7871 4.47573C38.6476 4.2358 38.4322 4.03346 38.1406 3.86929C37.8616 3.70509 37.4809 3.62319 36.999 3.62319H35.0205V7.82925Z" fill="black"/>
</svg>
