
<svg width="30" height="30" viewBox="0 0 30 30" fill="none" xmlns="http://www.w3.org/2000/svg">
<path d="M23.6179 7.75301L7.70798 23.6629C7.34558 24.0253 6.74454 24.0253 6.38215 23.6629C6.01976 23.3005 6.01976 22.6995 6.38215 22.3371L22.2921 6.42719C22.6544 6.06479 23.2555 6.06479 23.6179 6.42719C23.9803 6.78958 23.9803 7.39062 23.6179 7.75301Z" fill="#2B2B33"/>
<path d="M22.2919 23.8986L6.38201 7.98874C6.01962 7.62635 6.01962 7.0253 6.38201 6.66291C6.7444 6.30052 7.34544 6.30052 7.70783 6.66291L23.6177 22.5728C23.9801 22.9352 23.9801 23.5362 23.6177 23.8986C23.2553 24.261 22.6543 24.261 22.2919 23.8986Z" fill="#2B2B33"/>
</svg>
