
<svg width="92" height="92" viewBox="0 0 92 92" fill="none" xmlns="http://www.w3.org/2000/svg">
<circle cx="46" cy="46" r="46" fill="#065AF1"/>
<path d="M45.9998 48.1667C45.7831 48.1667 45.5665 48.1167 45.3665 48L30.6498 39.4834C30.0665 39.1334 29.8498 38.3667 30.1998 37.7667C30.5498 37.1667 31.3165 36.9667 31.9165 37.3167L45.9998 45.4667L59.9998 37.3667C60.5998 37.0167 61.3665 37.2334 61.7165 37.8167C62.0665 38.4167 61.8498 39.1834 61.2665 39.5334L46.6498 48C46.4331 48.1 46.2165 48.1667 45.9998 48.1667Z" fill="white"/>
<path d="M46 63.2667C45.3167 63.2667 44.75 62.7 44.75 62.0167V46.9C44.75 46.2167 45.3167 45.65 46 45.65C46.6833 45.65 47.25 46.2167 47.25 46.9V62.0167C47.25 62.7 46.6833 63.2667 46 63.2667Z" fill="white"/>
<path d="M46.0001 63.9166C44.5334 63.9166 43.0834 63.6 41.9334 62.9666L33.0334 58.0166C30.6167 56.6833 28.7334 53.4666 28.7334 50.7V41.2833C28.7334 38.5166 30.6167 35.3166 33.0334 33.9666L41.9334 29.0333C44.2167 27.7666 47.7834 27.7666 50.0667 29.0333L58.9667 33.9833C61.3834 35.3166 63.2667 38.5333 63.2667 41.3V50.7166C63.2667 53.4833 61.3834 56.6833 58.9667 58.0333L50.0667 62.9666C48.9167 63.6 47.4667 63.9166 46.0001 63.9166ZM46.0001 30.5833C44.9501 30.5833 43.9167 30.8 43.1501 31.2166L34.2501 36.1666C32.6501 37.05 31.2334 39.45 31.2334 41.2833V50.7C31.2334 52.5333 32.6501 54.9333 34.2501 55.8333L43.1501 60.7833C44.6667 61.6333 47.3334 61.6333 48.8501 60.7833L57.7501 55.8333C59.3501 54.9333 60.7667 52.55 60.7667 50.7V41.2833C60.7667 39.45 59.3501 37.05 57.7501 36.15L48.8501 31.2C48.0834 30.8 47.0501 30.5833 46.0001 30.5833Z" fill="white"/>
</svg>
