
<svg width="75" height="30" viewBox="0 0 75 30" fill="none" xmlns="http://www.w3.org/2000/svg">
<path d="M47.3919 15.91C43.9904 16.0215 41.8769 16.6354 41.8769 18.8759C41.8769 20.3264 43.0333 21.8988 45.969 21.8988C49.9049 21.8988 52.0059 19.7534 52.0059 16.2347L52.0061 15.8477C50.6262 15.8477 48.9245 15.8598 47.3919 15.91ZM55.7576 20.559C55.7576 21.6507 55.7891 22.7283 55.8844 23.6987H52.3949C52.3018 22.8996 52.2678 22.1057 52.2678 21.3356C50.3812 23.6547 48.1373 24.3214 45.0243 24.3214C40.4072 24.3214 37.9351 21.881 37.9351 19.0583C37.9351 14.97 41.2974 13.5286 47.1345 13.3949C48.7308 13.3584 50.5237 13.353 52.006 13.353L52.0058 12.9536C52.0058 10.2166 50.2508 9.09132 47.2098 9.09132C44.9521 9.09132 43.2882 10.0256 43.1167 11.64H39.1752C39.5924 7.61473 43.8215 6.59668 47.54 6.59668C51.9948 6.59668 55.7575 8.18167 55.7575 12.8935L55.7576 20.559Z" fill="#FFBC13"/>
<path d="M14.9447 13.9137C14.7991 10.4045 12.2662 9.09132 9.55917 9.09132C6.64009 9.09132 4.30953 10.5685 3.90128 13.9137H14.9447ZM3.82041 16.4084C4.02285 19.8133 6.37085 21.8271 9.59937 21.8271C11.8362 21.8271 13.8259 20.9157 14.4921 18.933H18.3612C17.6087 22.9559 13.3341 24.3214 9.65482 24.3214C2.96491 24.3214 0 20.6371 0 15.6685C0 10.1989 3.06666 6.59668 9.71586 6.59668C15.0083 6.59668 18.8861 9.36642 18.8861 15.4118V16.4084H3.82041Z" fill="#F12C2D"/>
<path d="M28.5089 21.7559C31.9953 21.7559 34.3809 19.2465 34.3809 15.4596C34.3809 11.6731 31.9953 9.16328 28.5089 9.16328C25.0421 9.16328 22.6366 11.6731 22.6366 15.4596C22.6366 19.2465 25.0421 21.7559 28.5089 21.7559ZM18.886 0H22.6366L22.6363 9.42309C24.4746 7.23272 27.0072 6.59676 29.5001 6.59676C33.6799 6.59676 38.3224 9.41726 38.3224 15.5072C38.3224 20.6068 34.6302 24.3215 29.4305 24.3215C26.7088 24.3215 24.1469 23.3451 22.5669 21.4107C22.5669 22.1834 22.5238 22.9621 22.4393 23.6988H18.7583C18.8223 22.5078 18.886 21.0249 18.886 19.825L18.886 0Z" fill="#0968F6"/>
<path d="M74.8594 7.2207L63.2604 29.9999H59.0603L62.395 23.6747L53.666 7.2207H58.0548L64.4781 20.0764L70.8832 7.2207H74.8594Z" fill="#93C822"/>
</svg>
