
<svg width="64" height="30" viewBox="0 0 64 30" fill="none" xmlns="http://www.w3.org/2000/svg">
<path d="M6.7788 2.30018V10.8045C6.7788 10.8045 9.77541 10.8045 11.3792 10.6827C12.6404 10.4619 12.8725 10.3402 13.1046 9.07898L13.5689 7.23176H14.9405L14.7084 11.2688L14.8301 15.4048H13.4472L13.1046 13.7897C12.7621 12.6404 12.2978 12.4068 11.3792 12.2964C10.2298 12.1747 6.7788 12.1747 6.7788 12.1747V19.3073C6.7788 20.679 7.47523 21.265 9.07898 21.265H13.9115C15.4048 21.265 16.8968 21.1432 17.8267 18.9648L19.0766 16.2003H20.2373C20.1156 16.775 19.5409 21.8397 19.4305 22.9791C19.4305 22.9791 15.0623 22.8687 13.2264 22.8687H4.94291L0 22.9791V21.7293L1.60376 21.3754C2.76446 21.1432 3.10701 20.8007 3.10701 19.882C3.10701 19.882 3.22874 16.775 3.22874 11.5986C3.22874 6.43484 3.10701 3.32641 3.10701 3.32641C3.10701 2.29735 2.76446 2.06521 1.60376 1.83307L0 1.49335V0.232141L4.8325 0.331226H14.0332C15.8691 0.331226 18.9648 0 18.9648 0C18.9648 0 18.8544 1.94631 18.7327 6.54666H17.4715L17.0072 4.93158C16.5542 2.86355 15.8677 1.83448 14.5966 1.83448H7.36482C6.7788 1.8359 6.7788 1.94631 6.7788 2.30018ZM25.4011 3.20751H26.784V8.04001L31.5061 7.80787L31.2739 9.99764L26.6736 9.64376V18.1594C26.6736 20.57 27.4804 21.4985 28.8634 21.4985C30.1132 21.4985 31.0418 20.8021 31.3843 20.2274L32.0694 21.0343C31.3843 22.638 29.438 23.4448 27.5908 23.4448C25.302 23.4448 23.4434 22.0732 23.4434 19.4305V9.76408H20.7002V8.6147C23.0018 8.38256 24.716 6.99962 25.4011 3.20751ZM35.2982 18.0362L36.2154 20.226C36.558 21.1432 37.3648 22.0732 39.2007 22.0732C41.1583 22.0732 41.9652 21.0343 41.9652 19.773C41.9652 15.8578 34.2578 17.0086 34.2578 11.7217C34.2578 8.73643 36.6684 7.34217 39.7754 7.34217C41.1583 7.34217 43.2264 7.57431 44.2654 8.03859C44.0332 9.18798 43.9115 10.6813 43.9115 11.8321L42.772 11.9425L41.9652 9.64235C41.733 9.07898 40.8045 8.61329 39.665 8.61329C38.2821 8.61329 36.9005 9.18797 36.9005 10.6813C36.9005 14.2427 44.84 13.4458 44.84 18.7327C44.84 21.7293 42.1973 23.333 38.9686 23.333C36.558 23.333 34.1361 22.4044 34.1361 22.4044C34.3682 21.0328 34.2578 19.5409 34.1361 18.0362H35.2982ZM44.2668 29.0728C44.6093 27.8116 44.8415 26.2093 45.0736 24.7046L46.3348 24.5942L46.7991 27.0048C46.9095 27.5795 47.252 28.0438 48.1707 28.0438C49.6641 28.0438 51.6217 27.1265 53.4675 23.9077C52.6493 21.9501 50.2387 15.6356 48.049 10.8031C47.4743 9.53194 47.3639 9.42012 46.5669 9.18798L45.9809 8.96716V7.80645L49.4418 7.92819L53.6883 7.69604V8.84684L52.6493 9.07898C51.8425 9.18939 51.5098 9.64235 51.5098 10.108C51.5098 10.2298 51.5099 10.3402 51.6203 10.5723C51.8411 11.2688 53.6883 16.4339 55.0712 19.8835C56.2107 17.4729 58.4005 12.0657 58.743 11.147C58.8648 10.6827 58.9752 10.5723 58.9752 10.2298C58.9752 9.64377 58.6326 9.30122 57.8357 9.0804L57.0175 8.84684V7.69746L60.2463 7.80787L63.2316 7.69746V8.84684L62.6569 9.2998C61.5075 9.76408 61.3858 9.87449 60.9314 10.8031L55.8781 22.6352C52.8815 29.4253 49.7745 30 47.5946 30C46.2131 30.0014 45.1741 29.6475 44.2668 29.0728Z" fill="#F45800"/>
</svg>
