
<svg width="24" height="24" viewBox="0 0 24 24" fill="none" xmlns="http://www.w3.org/2000/svg">
<path d="M21.4986 11.5733L20.2329 10.3076C19.9088 9.98347 19.3832 9.98347 19.0591 10.3076L10.4748 18.8919C10.1507 19.216 10.1507 19.7415 10.4748 20.0657L11.7405 21.3314C12.0647 21.6555 12.5902 21.6555 12.9143 21.3314L21.4986 12.7471C21.8228 12.423 21.8228 11.8975 21.4986 11.5733Z" fill="black"/>
<path opacity="0.3" d="M17.5958 7.66073L16.3301 6.395C16.0059 6.07087 15.4804 6.07087 15.1563 6.395L6.57199 14.9793C6.24785 15.3034 6.24785 15.8289 6.57199 16.1531L7.83771 17.4188C8.16185 17.7429 8.68737 17.7429 9.01151 17.4188L17.5958 8.83452C17.9199 8.51039 17.9199 7.98486 17.5958 7.66073Z" fill="black"/>
<path d="M11.2523 2.50549L6.57127 7.18654C6.24714 7.51067 6.24714 8.0362 6.57127 8.36034L7.83699 9.62606C8.16113 9.95019 8.68666 9.95019 9.01079 9.62606L13.6918 4.94501C14.016 4.62088 14.016 4.09535 13.6918 3.77121L12.4261 2.50549C12.102 2.18136 11.5765 2.18136 11.2523 2.50549Z" fill="black"/>
<path opacity="0.3" d="M3.93123 9.81633L2.66551 11.082C2.34138 11.4062 2.34138 11.9317 2.66551 12.2558L3.93123 13.5216C4.25537 13.8457 4.7809 13.8457 5.10503 13.5216L6.37075 12.2558C6.69489 11.9317 6.69489 11.4062 6.37075 11.082L5.10503 9.81633C4.7809 9.49219 4.25537 9.49219 3.93123 9.81633Z" fill="black"/>
</svg>
