
<svg width="24" height="24" viewBox="0 0 24 24" fill="none" xmlns="http://www.w3.org/2000/svg">
<g opacity="0.3">
<path d="M19.0797 14.9999C18.183 13.6388 17.7162 12.0396 17.7397 10.4099V10.2399C17.7386 9.31205 17.5075 8.39897 17.0669 7.58241C16.6263 6.76585 15.9901 6.07131 15.2152 5.56099C14.4404 5.05068 13.551 4.74052 12.6268 4.6583C11.7026 4.57608 10.7725 4.72437 9.91969 5.08988C8.92155 5.50256 8.07041 6.2056 7.47664 7.10784C6.88288 8.01008 6.57387 9.0699 6.58969 10.1499V10.2199C6.5962 11.9656 6.0385 13.6668 4.99969 15.0699L4.33969 15.9999C4.07254 16.3656 3.92892 16.807 3.92969 17.2599C3.92969 17.8221 4.15305 18.3614 4.55062 18.7589C4.9482 19.1565 5.48743 19.3799 6.04969 19.3799H17.9997C18.2781 19.3799 18.5538 19.325 18.811 19.2185C19.0682 19.112 19.3019 18.9558 19.4988 18.7589C19.6956 18.5621 19.8518 18.3284 19.9583 18.0712C20.0649 17.814 20.1197 17.5383 20.1197 17.2599V17.1999C20.1221 16.7729 19.9967 16.355 19.7597 15.9999L19.0797 14.9999Z" fill="black"/>
</g>
<path d="M10.0898 20.3296C10.205 20.7533 10.4563 21.1273 10.8051 21.394C11.1539 21.6606 11.5808 21.8051 12.0198 21.8051C12.4589 21.8051 12.8857 21.6606 13.2345 21.394C13.5833 21.1273 13.8347 20.7533 13.9498 20.3296H10.0898Z" fill="black"/>
<path d="M12.7597 4.68977V2.75977C12.7597 2.56085 12.6807 2.37009 12.54 2.22944C12.3994 2.08878 12.2086 2.00977 12.0097 2.00977C11.8108 2.00977 11.62 2.08878 11.4794 2.22944C11.3387 2.37009 11.2597 2.56085 11.2597 2.75977V4.64977C11.2552 4.67624 11.2552 4.70329 11.2597 4.72977C11.7556 4.6492 12.2602 4.63575 12.7597 4.68977Z" fill="black"/>
<path d="M3.3898 10.9999C3.2097 11.0016 3.03517 10.9375 2.89894 10.8197C2.76271 10.7019 2.67413 10.5384 2.6498 10.3599C2.452 9.1738 2.57904 7.95622 3.01744 6.83645C3.45584 5.71668 4.18924 4.7365 5.1398 3.99995C5.30689 3.88591 5.51243 3.84291 5.71122 3.88042C5.91001 3.91792 6.08576 4.03286 6.1998 4.19995C6.31384 4.36704 6.35684 4.57258 6.31933 4.77137C6.28183 4.97016 6.16689 5.14591 5.9998 5.25995C5.28188 5.83549 4.73022 6.59188 4.40156 7.45132C4.0729 8.31076 3.97909 9.24223 4.1298 10.1499C4.14386 10.2473 4.13838 10.3464 4.11369 10.4416C4.08901 10.5367 4.0456 10.626 3.98602 10.7042C3.92644 10.7824 3.85187 10.848 3.76667 10.897C3.68147 10.9461 3.58735 10.9777 3.4898 10.9899L3.3898 10.9999Z" fill="black"/>
<path d="M20.6098 10.9999H20.5098C20.4122 10.9877 20.3181 10.9561 20.2329 10.907C20.1477 10.858 20.0731 10.7924 20.0135 10.7142C19.9539 10.636 19.9105 10.5467 19.8859 10.4515C19.8612 10.3564 19.8557 10.2573 19.8698 10.1599C20.0192 9.25079 19.9248 8.31828 19.5963 7.45748C19.2678 6.59669 18.7169 5.83841 17.9998 5.25995C17.917 5.20348 17.8462 5.13127 17.7914 5.04744C17.7366 4.96361 17.6988 4.8698 17.6802 4.77137C17.6616 4.67294 17.6626 4.57181 17.6832 4.47377C17.7037 4.37572 17.7433 4.28268 17.7997 4.19995C17.9138 4.03286 18.0895 3.91792 18.2883 3.88041C18.3868 3.86184 18.4879 3.86284 18.5859 3.88335C18.684 3.90386 18.777 3.94348 18.8598 3.99995C19.8037 4.73304 20.533 5.70664 20.9711 6.81863C21.4092 7.93061 21.54 9.14 21.3498 10.3199C21.3346 10.5056 21.2501 10.6788 21.1129 10.8048C20.9757 10.9309 20.796 11.0006 20.6098 10.9999Z" fill="black"/>
</svg>
