
<svg width="24" height="24" viewBox="0 0 24 24" fill="none" xmlns="http://www.w3.org/2000/svg">
<path opacity="0.3" d="M21.43 7.24012L13.69 2.48012C13.1819 2.16686 12.5968 2.00098 12 2.00098C11.4031 2.00098 10.818 2.16686 10.31 2.48012L2.56997 7.24012C1.47997 7.92012 2.04997 9.36012 3.40997 9.36012H4.64997V18.2701C4.64865 18.3852 4.67018 18.4994 4.71331 18.6061C4.75643 18.7128 4.82031 18.8099 4.90123 18.8918C4.98215 18.9736 5.0785 19.0386 5.18471 19.083C5.29092 19.1273 5.40488 19.1501 5.51997 19.1501H6.99997C7.11591 19.1515 7.23094 19.1296 7.33831 19.0859C7.44569 19.0421 7.54323 18.9773 7.62521 18.8954C7.7072 18.8134 7.77197 18.7158 7.81572 18.6085C7.85947 18.5011 7.88131 18.3861 7.87997 18.2701V9.36012H10.33V18.2701C10.3287 18.3852 10.3502 18.4994 10.3933 18.6061C10.4364 18.7128 10.5003 18.8099 10.5812 18.8918C10.6621 18.9736 10.7585 19.0386 10.8647 19.083C10.9709 19.1273 11.0849 19.1501 11.2 19.1501H12.72C12.8351 19.1501 12.949 19.1273 13.0552 19.083C13.1614 19.0386 13.2578 18.9736 13.3387 18.8918C13.4196 18.8099 13.4835 18.7128 13.5266 18.6061C13.5698 18.4994 13.5913 18.3852 13.59 18.2701V9.36012H16V18.2701C15.9987 18.3852 16.0202 18.4994 16.0633 18.6061C16.1064 18.7128 16.1703 18.8099 16.2512 18.8918C16.3321 18.9736 16.4285 19.0386 16.5347 19.083C16.6409 19.1273 16.7549 19.1501 16.87 19.1501H18.4C18.5151 19.1501 18.629 19.1273 18.7352 19.083C18.8414 19.0386 18.9378 18.9736 19.0187 18.8918C19.0996 18.8099 19.1635 18.7128 19.2066 18.6061C19.2498 18.4994 19.2713 18.3852 19.27 18.2701V9.36012H20.63C22 9.36012 22.52 7.92012 21.43 7.24012Z" fill="black"/>
<path d="M21.4201 22.77H2.58008C2.38117 22.77 2.1904 22.691 2.04975 22.5503C1.9091 22.4097 1.83008 22.2189 1.83008 22.02C1.83008 21.8211 1.9091 21.6303 2.04975 21.4897C2.1904 21.349 2.38117 21.27 2.58008 21.27H21.4201C21.619 21.27 21.8098 21.349 21.9504 21.4897C22.0911 21.6303 22.1701 21.8211 22.1701 22.02C22.1701 22.2189 22.0911 22.4097 21.9504 22.5503C21.8098 22.691 21.619 22.77 21.4201 22.77Z" fill="black"/>
</svg>
