
<svg width="24" height="24" viewBox="0 0 24 24" fill="none" xmlns="http://www.w3.org/2000/svg">
<path d="M12.25 20.7402C12.0668 20.7355 11.8893 20.6763 11.74 20.5702C11.5583 20.4313 11.4386 20.2265 11.4068 20C11.375 19.7736 11.4336 19.5437 11.57 19.3602C12.3372 18.3301 12.8821 17.1519 13.17 15.9002C13.2283 15.683 13.3694 15.4974 13.563 15.383C13.7565 15.2686 13.9872 15.2345 14.2056 15.2881C14.4239 15.3417 14.6126 15.4787 14.7312 15.6698C14.8498 15.8608 14.8888 16.0907 14.84 16.3102C14.4911 17.7854 13.8445 19.1737 12.94 20.3902C12.8614 20.4995 12.7577 20.5884 12.6377 20.6493C12.5176 20.7102 12.3846 20.7414 12.25 20.7402ZM9.77997 18.8402C11.0315 17.4127 11.7211 15.5786 11.72 13.6802V9.36015C11.707 9.24011 11.7194 9.11867 11.7564 9.00374C11.7935 8.88881 11.8543 8.78298 11.935 8.69311C12.0156 8.60325 12.1143 8.53138 12.2246 8.48218C12.3348 8.43298 12.4542 8.40755 12.575 8.40755C12.6957 8.40755 12.8151 8.43298 12.9254 8.48218C13.0357 8.53138 13.1343 8.60325 13.215 8.69311C13.2956 8.78298 13.3565 8.88881 13.3935 9.00374C13.4305 9.11867 13.443 9.24011 13.43 9.36015V13.0902C13.417 13.2102 13.4294 13.3316 13.4664 13.4466C13.5035 13.5615 13.5643 13.6673 13.645 13.7572C13.7256 13.8471 13.8243 13.9189 13.9346 13.9681C14.0448 14.0173 14.1642 14.0428 14.285 14.0428C14.4057 14.0428 14.5251 14.0173 14.6354 13.9681C14.7457 13.9189 14.8443 13.8471 14.925 13.7572C15.0056 13.6673 15.0665 13.5615 15.1035 13.4466C15.1405 13.3316 15.153 13.2102 15.14 13.0902V9.36015C15.1619 9.00984 15.1117 8.65876 14.9927 8.32856C14.8737 7.99836 14.6884 7.69603 14.448 7.44022C14.2077 7.18441 13.9175 6.98054 13.5954 6.84118C13.2732 6.70182 12.926 6.62992 12.575 6.62992C12.224 6.62992 11.8767 6.70182 11.5546 6.84118C11.2324 6.98054 10.9422 7.18441 10.7019 7.44022C10.4616 7.69603 10.2762 7.99836 10.1572 8.32856C10.0382 8.65876 9.98808 9.00984 10.01 9.36015V13.6802C10.0084 15.1525 9.47176 16.5741 8.49997 17.6802C8.35137 17.853 8.27562 18.0767 8.28868 18.3043C8.30173 18.5318 8.40257 18.7455 8.56997 18.9002C8.65359 18.9759 8.75144 19.0342 8.85783 19.0717C8.96422 19.1092 9.07701 19.1252 9.18964 19.1187C9.30226 19.1122 9.41246 19.0833 9.51381 19.0338C9.61516 18.9842 9.70564 18.915 9.77997 18.8302V18.8402ZM7.44997 16.3102C7.67989 16.2974 7.89617 16.1969 8.05428 16.0295C8.2124 15.8621 8.30032 15.6404 8.29997 15.4102V9.36015C8.29852 8.84469 8.38998 8.33318 8.56997 7.85015C8.64837 7.6365 8.63993 7.40063 8.54646 7.19313C8.45299 6.98563 8.28193 6.82301 8.06997 6.74015C7.96496 6.70015 7.85307 6.68137 7.74076 6.68489C7.62845 6.68841 7.51795 6.71417 7.41565 6.76066C7.31336 6.80716 7.2213 6.87348 7.1448 6.95578C7.0683 7.03808 7.00888 7.13474 6.96997 7.24015C6.71408 7.91746 6.58526 8.63614 6.58997 9.36015V15.4902C6.59126 15.6 6.61435 15.7085 6.6579 15.8094C6.70144 15.9102 6.76458 16.0015 6.84365 16.0777C6.92272 16.154 7.01614 16.2138 7.11851 16.2537C7.22087 16.2936 7.33014 16.3128 7.43997 16.3102H7.44997ZM9.99997 5.90015C10.4233 5.57678 10.9057 5.33902 11.42 5.20015C11.6344 5.1288 11.8137 4.97851 11.9215 4.77979C12.0292 4.58107 12.0572 4.34881 12 4.13015C11.9391 3.9228 11.8025 3.74594 11.6172 3.63477C11.4319 3.52359 11.2115 3.48624 11 3.53015C10.2779 3.73868 9.60005 4.0776 8.99997 4.53015C8.82047 4.67057 8.70244 4.87516 8.67073 5.10084C8.63902 5.32652 8.69611 5.55571 8.82997 5.74015C8.90965 5.84834 9.01356 5.93635 9.13339 5.99713C9.25321 6.05791 9.38561 6.08977 9.51997 6.09015C9.69523 6.07563 9.86225 6.00952 9.99997 5.90015ZM17.85 18.1902C18.3134 16.7317 18.5495 15.2105 18.55 13.6802V9.36015C18.5631 8.10864 18.1846 6.88434 17.4673 5.85866C16.75 4.83298 15.73 4.05728 14.55 3.64015C14.3338 3.5699 14.0986 3.58707 13.8949 3.688C13.6912 3.78892 13.5351 3.96557 13.46 4.18015C13.3894 4.39773 13.4062 4.63425 13.507 4.83959C13.6078 5.04493 13.7846 5.20295 14 5.28015C14.8461 5.57539 15.5791 6.12701 16.097 6.85827C16.615 7.58952 16.8922 8.46404 16.89 9.36015V13.6802C16.8934 15.0377 16.6842 16.3874 16.27 17.6802C16.2341 17.7878 16.2198 17.9015 16.2281 18.0147C16.2363 18.1279 16.2669 18.2384 16.318 18.3397C16.3691 18.441 16.4398 18.5312 16.526 18.6051C16.6121 18.679 16.712 18.7351 16.82 18.7702C16.9061 18.784 16.9939 18.784 17.08 18.7702C17.255 18.7654 17.4245 18.7073 17.5657 18.6037C17.7068 18.5001 17.813 18.3558 17.87 18.1902H17.85Z" fill="black"/>
<path opacity="0.3" d="M20.8001 22.7499H17.8501C17.6512 22.7499 17.4604 22.6709 17.3198 22.5303C17.1791 22.3896 17.1001 22.1989 17.1001 21.9999C17.1001 21.801 17.1791 21.6103 17.3198 21.4696C17.4604 21.329 17.6512 21.2499 17.8501 21.2499H20.8001C20.9204 21.2473 21.0348 21.1977 21.1189 21.1117C21.203 21.0257 21.2501 20.9102 21.2501 20.7899V17.4399C21.2501 17.241 21.3291 17.0503 21.4698 16.9096C21.6104 16.769 21.8012 16.6899 22.0001 16.6899C22.199 16.6899 22.3898 16.769 22.5304 16.9096C22.6711 17.0503 22.7501 17.241 22.7501 17.4399V20.7899C22.74 21.3049 22.5316 21.796 22.1683 22.1611C21.8051 22.5263 21.315 22.7372 20.8001 22.7499Z" fill="black"/>
<path opacity="0.3" d="M6.27988 22.7499H3.32988C2.80816 22.7369 2.31221 22.5204 1.94788 22.1468C1.58356 21.7731 1.37972 21.2718 1.37988 20.7499V17.4399C1.37988 17.241 1.4589 17.0503 1.59955 16.9096C1.74021 16.769 1.93097 16.6899 2.12988 16.6899C2.3288 16.6899 2.51956 16.769 2.66021 16.9096C2.80087 17.0503 2.87988 17.241 2.87988 17.4399V20.7899C2.87985 20.9102 2.92694 21.0257 3.01106 21.1117C3.09518 21.1977 3.20962 21.2473 3.32988 21.2499H6.32988C6.52879 21.2499 6.71956 21.329 6.86021 21.4696C7.00086 21.6103 7.07988 21.801 7.07988 21.9999C7.07988 22.1989 7.00086 22.3896 6.86021 22.5303C6.71956 22.6709 6.52879 22.7499 6.32988 22.7499H6.27988Z" fill="black"/>
<path opacity="0.3" d="M22.0001 7.33002C21.802 7.32743 21.6127 7.24758 21.4726 7.10749C21.3325 6.96739 21.2527 6.77813 21.2501 6.58002V3.22002C21.2501 3.10067 21.2027 2.98621 21.1183 2.90182C21.0339 2.81743 20.9194 2.77002 20.8001 2.77002H17.8501C17.6512 2.77002 17.4604 2.691 17.3198 2.55035C17.1791 2.4097 17.1001 2.21893 17.1001 2.02002C17.1001 1.82111 17.1791 1.63034 17.3198 1.48969C17.4604 1.34904 17.6512 1.27002 17.8501 1.27002H20.8001C21.3218 1.28307 21.8178 1.49953 22.1821 1.87319C22.5464 2.24686 22.7503 2.74814 22.7501 3.27002V6.58002C22.7475 6.77813 22.6677 6.96739 22.5276 7.10749C22.3875 7.24758 22.1982 7.32743 22.0001 7.33002Z" fill="black"/>
<path opacity="0.3" d="M2.12988 7.33002C1.93178 7.32743 1.74251 7.24758 1.60242 7.10749C1.46232 6.96739 1.38247 6.77813 1.37988 6.58002V3.22002C1.39293 2.6983 1.60939 2.20235 1.98306 1.83802C2.35673 1.47369 2.858 1.26986 3.37988 1.27002H6.37988C6.57879 1.27002 6.76956 1.34904 6.91021 1.48969C7.05087 1.63034 7.12988 1.82111 7.12988 2.02002C7.12988 2.21893 7.05087 2.4097 6.91021 2.55035C6.76956 2.691 6.57879 2.77002 6.37988 2.77002H3.32988C3.27079 2.77002 3.21227 2.78166 3.15768 2.80427C3.10308 2.82689 3.05347 2.86004 3.01168 2.90182C2.9699 2.94361 2.93675 2.99322 2.91414 3.04781C2.89152 3.10241 2.87988 3.16092 2.87988 3.22002V6.58002C2.87988 6.77893 2.80087 6.9697 2.66021 7.11035C2.51956 7.251 2.3288 7.33002 2.12988 7.33002Z" fill="black"/>
</svg>
