
<svg width="24" height="24" viewBox="0 0 24 24" fill="none" xmlns="http://www.w3.org/2000/svg">
<path opacity="0.3" d="M16.15 2.18018H7.85C4.61913 2.18018 2 4.79931 2 8.03018V16.3302C2 19.561 4.61913 22.1802 7.85 22.1802H16.15C19.3809 22.1802 22 19.561 22 16.3302V8.03018C22 4.79931 19.3809 2.18018 16.15 2.18018Z" fill="black"/>
<path d="M16.3099 5.56006H7.62986C6.51425 5.56006 5.60986 6.46444 5.60986 7.58006V8.20006C5.60986 9.31567 6.51425 10.2201 7.62986 10.2201H16.3099C17.4255 10.2201 18.3299 9.31567 18.3299 8.20006V7.58006C18.3299 6.46444 17.4255 5.56006 16.3099 5.56006Z" fill="black"/>
<path d="M7.51978 14.7701C8.06655 14.7701 8.50979 14.3403 8.50979 13.8101C8.50979 13.2799 8.06655 12.8501 7.51978 12.8501C6.97302 12.8501 6.52979 13.2799 6.52979 13.8101C6.52979 14.3403 6.97302 14.7701 7.51978 14.7701Z" fill="black"/>
<path d="M12.7498 14.7701C13.2965 14.7701 13.7398 14.3403 13.7398 13.8101C13.7398 13.2799 13.2965 12.8501 12.7498 12.8501C12.203 12.8501 11.7598 13.2799 11.7598 13.8101C11.7598 14.3403 12.203 14.7701 12.7498 14.7701Z" fill="black"/>
<path d="M7.51978 18.44C8.06655 18.44 8.50979 18.0102 8.50979 17.48C8.50979 16.9498 8.06655 16.52 7.51978 16.52C6.97302 16.52 6.52979 16.9498 6.52979 17.48C6.52979 18.0102 6.97302 18.44 7.51978 18.44Z" fill="black"/>
<path d="M12.7498 18.44C13.2965 18.44 13.7398 18.0102 13.7398 17.48C13.7398 16.9498 13.2965 16.52 12.7498 16.52C12.203 16.52 11.7598 16.9498 11.7598 17.48C11.7598 18.0102 12.203 18.44 12.7498 18.44Z" fill="black"/>
<path d="M17.1802 18.6C16.9813 18.6 16.7905 18.521 16.6498 18.3803C16.5092 18.2397 16.4302 18.0489 16.4302 17.85V13.48C16.4302 13.2811 16.5092 13.0903 16.6498 12.9497C16.7905 12.809 16.9813 12.73 17.1802 12.73C17.3791 12.73 17.5699 12.809 17.7105 12.9497C17.8512 13.0903 17.9302 13.2811 17.9302 13.48V17.85C17.9276 18.0481 17.8477 18.2374 17.7076 18.3774C17.5675 18.5175 17.3783 18.5974 17.1802 18.6Z" fill="black"/>
</svg>
