
<svg width="30" height="30" viewBox="0 0 30 30" fill="none" xmlns="http://www.w3.org/2000/svg">
<path d="M14.9999 16.6251C14.8374 16.6251 14.6749 16.5876 14.5249 16.5001L3.48736 10.1126C3.04986 9.85007 2.88736 9.27507 3.14986 8.82507C3.41236 8.37507 3.98736 8.22507 4.43736 8.48757L14.9999 14.6001L25.4999 8.52507C25.9499 8.26257 26.5249 8.42507 26.7874 8.86257C27.0499 9.31257 26.8874 9.88757 26.4499 10.1501L15.4874 16.5001C15.3249 16.5751 15.1624 16.6251 14.9999 16.6251Z" fill="black"/>
<path d="M15 27.9498C14.4875 27.9498 14.0625 27.5248 14.0625 27.0123V15.6748C14.0625 15.1623 14.4875 14.7373 15 14.7373C15.5125 14.7373 15.9375 15.1623 15.9375 15.6748V27.0123C15.9375 27.5248 15.5125 27.9498 15 27.9498Z" fill="black"/>
<path d="M14.9998 28.4375C13.8998 28.4375 12.8123 28.2 11.9498 27.725L5.2748 24.0125C3.4623 23.0125 2.0498 20.6 2.0498 18.525V11.4625C2.0498 9.3875 3.4623 6.9875 5.2748 5.975L11.9498 2.275C13.6623 1.325 16.3373 1.325 18.0498 2.275L24.7248 5.9875C26.5373 6.9875 27.9498 9.4 27.9498 11.475V18.5375C27.9498 20.6125 26.5373 23.0125 24.7248 24.025L18.0498 27.725C17.1873 28.2 16.0998 28.4375 14.9998 28.4375ZM14.9998 3.4375C14.2123 3.4375 13.4373 3.6 12.8623 3.9125L6.1873 7.625C4.9873 8.2875 3.9248 10.0875 3.9248 11.4625V18.525C3.9248 19.9 4.9873 21.7 6.1873 22.375L12.8623 26.0875C13.9998 26.725 15.9998 26.725 17.1373 26.0875L23.8123 22.375C25.0123 21.7 26.0748 19.9125 26.0748 18.525V11.4625C26.0748 10.0875 25.0123 8.2875 23.8123 7.6125L17.1373 3.9C16.5623 3.6 15.7873 3.4375 14.9998 3.4375Z" fill="black"/>
</svg>
