
<svg width="127" height="30" viewBox="0 0 127 30" fill="none" xmlns="http://www.w3.org/2000/svg">
<path d="M110.867 10.0992C111.57 10.0992 112.149 9.7337 112.227 9.26151L112.921 1.41266C112.921 0.636873 112.012 0 110.869 0C109.728 0 108.82 0.636869 108.82 1.41279L109.513 9.26151C109.59 9.73356 110.168 10.0992 110.869 10.0992H110.867ZM106.625 12.5508C106.978 11.9427 106.951 11.2594 106.579 10.9558L100.128 6.43032C99.4573 6.04187 98.4516 6.50944 97.8808 7.49933C97.3081 8.48797 97.4096 9.59213 98.0786 9.98072L105.222 13.3068C105.669 13.4723 106.277 13.1537 106.627 12.5461L106.625 12.5508ZM115.113 12.5465C115.465 13.1542 116.071 13.4729 116.518 13.3072L123.661 9.98114C124.334 9.59269 124.43 8.48839 123.863 7.49976C123.289 6.51084 122.281 6.04229 121.613 6.43074L115.161 10.9562C114.792 11.2594 114.764 11.9433 115.115 12.5512L115.113 12.5465ZM110.867 19.9036C111.57 19.9036 112.149 20.266 112.227 20.7386L112.921 28.5864C112.921 29.3645 112.012 30 110.869 30C109.728 30 108.82 29.3645 108.82 28.5864L109.513 20.7386C109.59 20.266 110.168 19.9036 110.869 19.9036H110.867ZM115.113 17.4515C115.465 16.8422 116.071 16.5263 116.518 16.6938L123.661 20.0176C124.334 20.4065 124.43 21.5118 123.863 22.5012C123.289 23.4869 122.281 23.9567 121.613 23.5688L115.161 19.0476C114.792 18.742 114.764 18.0577 115.115 17.4502H115.112M106.625 17.4507C106.978 18.0577 106.951 18.742 106.579 19.0482L100.128 23.5693C99.4573 23.9572 98.4516 23.4873 97.8808 22.5016C97.3081 21.5122 97.4096 20.4069 98.0786 20.018L105.222 16.6942C105.669 16.5267 106.277 16.8426 106.627 17.4521H106.625" fill="#FDBB30"/>
<path d="M70.1737 19.0333C70.1737 19.2742 70.1523 19.5226 70.0863 19.7408C69.8127 20.6469 68.8745 21.4132 67.7007 21.4132C66.722 21.4132 65.9447 20.8572 65.9447 19.6831C65.9447 17.886 67.9227 17.3897 70.1742 17.4022L70.1737 19.0332V19.0333ZM73.7053 15.9016C73.7053 12.9384 72.4391 10.331 68.1609 10.331C65.9647 10.331 64.2217 10.9478 63.2703 11.4976L63.9671 13.8798C64.8366 13.3309 66.2224 12.8765 67.5338 12.8765C69.7039 12.8705 70.0593 14.1054 70.0593 14.8958V15.0828C65.3288 15.0758 62.3386 16.7138 62.3386 20.0505C62.3386 22.0894 63.8616 23.999 66.509 23.999C68.1358 23.999 69.4983 23.3497 70.3137 22.3086H70.3942C70.3942 22.3086 70.9338 24.569 73.9124 23.7041C73.757 22.7641 73.7059 21.7606 73.7059 20.5539L73.7055 15.9016M0 6.29548C0 6.29548 3.09123 18.962 3.58485 21.0177C4.16067 23.4172 5.19845 24.3005 8.18914 23.7041L10.1192 15.8513C10.6086 13.8998 10.9362 12.5085 11.2515 10.5253H11.3064C11.5278 12.5295 11.8419 13.9059 12.2446 15.8578C12.2446 15.8578 13.0299 19.423 13.4328 21.295C13.8361 23.1664 14.9586 24.3466 17.8884 23.7041L22.4876 6.29492H18.7754L17.2045 13.8221C16.7821 16.0122 16.3993 17.7255 16.1038 19.7287H16.0513C15.7829 17.7432 15.441 16.0998 15.0121 13.9654L13.3779 6.29492H9.50937L7.76036 13.772C7.26534 16.0447 6.80113 17.8792 6.50706 19.8157H6.45357C6.15166 17.9922 5.74976 15.6857 5.31482 13.4867C5.31482 13.4867 4.27647 8.13846 3.91127 6.29492L0 6.29548ZM29.5097 19.0333C29.5097 19.2742 29.4883 19.5226 29.4214 19.7408C29.1483 20.6469 28.2095 21.4132 27.0358 21.4132C26.0569 21.4132 25.2807 20.8572 25.2807 19.6831C25.2807 17.886 27.2582 17.3897 29.5102 17.4022L29.5097 19.0332V19.0333ZM33.041 15.9016C33.041 12.9384 31.7748 10.331 27.4973 10.331C25.3006 10.331 23.5562 10.9478 22.6054 11.4976L23.3014 13.8798C24.1707 13.3309 25.5565 12.8765 26.8683 12.8765C29.0399 12.8705 29.3953 14.1054 29.3953 14.8958V15.0828C24.6629 15.0758 21.674 16.7138 21.674 20.0505C21.674 22.0894 23.1962 23.999 25.8417 23.999C27.4707 23.999 28.8324 23.3497 29.6488 22.3086H29.7283C29.7283 22.3086 30.2694 24.569 33.2474 23.7041C33.0917 22.7641 33.041 21.7606 33.041 20.5539V15.9016ZM38.9344 20.0086V6.29548H35.3986V23.7047H38.9344V20.0086ZM85.1896 6.29548V19.1379C85.1896 20.9093 85.5236 22.1491 86.2356 22.9078C86.8596 23.5711 87.8848 24.0004 89.1143 24.0004C90.1601 24.0004 91.1882 23.8009 91.6734 23.6209L91.6277 20.8586C91.2667 20.9469 90.8522 21.0183 90.2848 21.0183C89.08 21.0183 88.6771 20.2464 88.6771 18.6569V13.7431H91.7561V10.4118H88.6771V6.29548H85.1896ZM76.0631 10.6263V23.7047H79.7105V17.0083C79.7105 16.6463 79.7324 16.331 79.7896 16.0425C80.0595 14.6391 81.1321 13.7431 82.6729 13.7431C83.0952 13.7431 83.3976 13.7891 83.7251 13.8356V10.4118C83.4502 10.357 83.2637 10.3314 82.9217 10.3314C81.5606 10.3314 80.012 11.2097 79.3621 13.0937H79.2635V10.6263H76.0631ZM41.4102 10.6263V23.7047H44.9638V16.0355C44.9638 15.6756 45.0061 15.295 45.1307 14.9651C45.4252 14.1929 46.1439 13.2886 47.2906 13.2886C48.7252 13.2886 49.3952 14.5009 49.3952 16.2504V23.7037H52.946V15.9411C52.946 15.5977 52.9929 15.1838 53.0944 14.8811C53.386 14.0022 54.1601 13.2876 55.2263 13.2876C56.68 13.2876 57.3777 14.4786 57.3777 16.5379V23.7033H60.9309V16.0001C60.9309 11.9381 58.8683 10.3301 56.5395 10.3301C55.5091 10.3301 54.695 10.5882 53.9587 11.0394C53.3404 11.4203 52.7859 11.96 52.3021 12.6694H52.2496C51.688 11.2599 50.3668 10.3308 48.6451 10.3308C46.4333 10.3308 45.4392 11.4521 44.8362 12.4029H44.7833V10.6259H41.4102" fill="#1A75CF"/>
</svg>
