
<svg width="60" height="60" viewBox="0 0 60 60" fill="none" xmlns="http://www.w3.org/2000/svg">
<circle cx="30" cy="30" r="30" fill="#065AF1"/>
<path d="M30.0001 31.3C29.8701 31.3 29.7401 31.27 29.6201 31.2L20.7901 26.09C20.4401 25.88 20.3101 25.42 20.5201 25.06C20.7301 24.7 21.1901 24.58 21.5501 24.79L30.0001 29.68L38.4001 24.82C38.7601 24.61 39.2201 24.74 39.4301 25.09C39.6401 25.45 39.5101 25.91 39.1601 26.12L30.3901 31.2C30.2601 31.26 30.1301 31.3 30.0001 31.3Z" fill="white"/>
<path d="M30 40.36C29.59 40.36 29.25 40.02 29.25 39.61V30.54C29.25 30.13 29.59 29.79 30 29.79C30.41 29.79 30.75 30.13 30.75 30.54V39.61C30.75 40.02 30.41 40.36 30 40.36Z" fill="white"/>
<path d="M30.0001 40.75C29.1201 40.75 28.2501 40.56 27.5601 40.18L22.2201 37.21C20.7701 36.41 19.6401 34.48 19.6401 32.82V27.17C19.6401 25.51 20.7701 23.59 22.2201 22.78L27.5601 19.82C28.9301 19.06 31.0701 19.06 32.4401 19.82L37.7801 22.79C39.2301 23.59 40.3601 25.52 40.3601 27.18V32.83C40.3601 34.49 39.2301 36.41 37.7801 37.22L32.4401 40.18C31.7501 40.56 30.8801 40.75 30.0001 40.75ZM30.0001 20.75C29.3701 20.75 28.7501 20.88 28.2901 21.13L22.9501 24.1C21.9901 24.63 21.1401 26.07 21.1401 27.17V32.82C21.1401 33.92 21.9901 35.36 22.9501 35.9L28.2901 38.87C29.2001 39.38 30.8001 39.38 31.7101 38.87L37.0501 35.9C38.0101 35.36 38.8601 33.93 38.8601 32.82V27.17C38.8601 26.07 38.0101 24.63 37.0501 24.09L31.7101 21.12C31.2501 20.88 30.6301 20.75 30.0001 20.75Z" fill="white"/>
</svg>
