<svg width="380" height="383" viewBox="0 0 380 383" fill="none" xmlns="http://www.w3.org/2000/svg">
<rect width="144.566" height="144.566" transform="matrix(0.323091 0.946368 -0.658033 0.752989 142.939 54.6118)" fill="white"/>
<rect width="144.566" height="144.566" transform="matrix(0.323091 0.946368 -0.981124 -0.193379 284.846 82.629)" fill="#EAF1F9"/>
<rect width="144.566" height="144.566" transform="matrix(0.981124 0.193379 -0.658033 0.752989 189.717 191.486)" fill="#D6E2EE"/>
<path d="M136.462 32.8667L300.161 64.8081L300.984 64.9683L301.254 65.7622L354.821 223.472L355.09 224.261L354.541 224.889L245.075 349.993L244.525 350.621L243.707 350.458L80.6729 318.185L79.8545 318.023L79.585 317.233L25.6846 159.19L25.415 158.399L25.9658 157.77L135.099 33.3325L135.646 32.7075L136.462 32.8667ZM83.7627 315.847L243.448 347.459L350.908 224.647L190.958 193.573L83.7627 315.847ZM28.6904 159.048L81.5381 314L188.778 191.672L135.628 37.1118L28.6904 159.048ZM191.514 190.735L351.185 221.755L298.785 67.4849L138.367 36.1841L191.514 190.735Z" fill="#065AF1"/>
<circle cx="190.18" cy="192.216" r="5.78264" fill="#065AF1"/>
<circle cx="83.201" cy="315.965" r="5.78264" fill="#065AF1"/>
<circle cx="351.516" cy="223.443" r="5.78264" fill="#065AF1"/>
<circle cx="136.401" cy="35.5068" r="5.78264" fill="#065AF1"/>
<circle cx="28.2658" cy="158.099" r="5.78264" fill="#065AF1"/>
</svg>
