
<svg width="250" height="75" viewBox="0 0 250 75" fill="none" xmlns="http://www.w3.org/2000/svg">
<ellipse cx="2.19298" cy="37.2807" rx="2.19298" ry="2.19298" fill="white" fill-opacity="0.3"/>
<ellipse cx="2.19298" cy="72.3684" rx="2.19298" ry="2.19298" fill="white" fill-opacity="0.3"/>
<ellipse cx="37.2809" cy="37.2807" rx="2.19298" ry="2.19298" fill="white"/>
<ellipse cx="37.2809" cy="72.3684" rx="2.19298" ry="2.19298" fill="white" fill-opacity="0.3"/>
<ellipse cx="72.3688" cy="37.2807" rx="2.19299" ry="2.19298" fill="white" fill-opacity="0.3"/>
<ellipse cx="72.3688" cy="72.3684" rx="2.19299" ry="2.19298" fill="white" fill-opacity="0.3"/>
<ellipse cx="107.457" cy="2.19298" rx="2.19298" ry="2.19298" fill="white" fill-opacity="0.3"/>
<ellipse cx="107.457" cy="37.2807" rx="2.19298" ry="2.19298" fill="white" fill-opacity="0.3"/>
<ellipse cx="107.457" cy="72.3684" rx="2.19298" ry="2.19298" fill="white" fill-opacity="0.3"/>
<ellipse cx="142.544" cy="2.19298" rx="2.19299" ry="2.19298" fill="white" fill-opacity="0.3"/>
<ellipse cx="142.544" cy="37.2807" rx="2.19299" ry="2.19298" fill="white" fill-opacity="0.3"/>
<ellipse cx="142.544" cy="72.3684" rx="2.19299" ry="2.19298" fill="white" fill-opacity="0.3"/>
<circle cx="177.631" cy="2.19298" r="2.19298" fill="white" fill-opacity="0.3"/>
<circle cx="177.631" cy="37.2807" r="2.19298" fill="white" fill-opacity="0.3"/>
<circle cx="212.719" cy="2.19298" r="2.19298" fill="white" fill-opacity="0.3"/>
<circle cx="212.719" cy="37.2807" r="2.19298" fill="white"/>
<ellipse cx="247.807" cy="2.19298" rx="2.193" ry="2.19298" fill="white" fill-opacity="0.3"/>
<ellipse cx="247.807" cy="37.2807" rx="2.193" ry="2.19298" fill="white" fill-opacity="0.3"/>
</svg>
