
<svg width="24" height="24" viewBox="0 0 24 24" fill="white" xmlns="http://www.w3.org/2000/svg">
<path opacity="0.3" d="M18.3999 5.6C18.5888 5.7861 18.7389 6.00793 18.8413 6.25257C18.9438 6.49721 18.9965 6.75978 18.9965 7.025C18.9965 7.29022 18.9438 7.55279 18.8413 7.79744C18.7389 8.04208 18.5888 8.2639 18.3999 8.45L14.8399 12C14.4633 12.3766 13.9525 12.5882 13.4199 12.5882C12.8873 12.5882 12.3765 12.3766 11.9999 12C11.6233 11.6234 11.4117 11.1126 11.4117 10.58C11.4117 10.0474 11.6233 9.53661 11.9999 9.16L15.5499 5.6C15.736 5.41103 15.9578 5.26096 16.2024 5.15853C16.4471 5.0561 16.7097 5.00335 16.9749 5.00335C17.2401 5.00335 17.5027 5.0561 17.7473 5.15853C17.9919 5.26096 18.2138 5.41103 18.3999 5.6ZM20.5299 3.47C20.0649 2.99985 19.5113 2.6266 18.901 2.37186C18.2908 2.11713 17.6361 1.98596 16.9749 1.98596C16.3136 1.98596 15.6589 2.11713 15.0487 2.37186C14.4385 2.6266 13.8849 2.99985 13.4199 3.47L9.86987 7C8.92835 7.94152 8.39941 9.21849 8.39941 10.55C8.39941 11.2093 8.52927 11.8621 8.78157 12.4712C9.03387 13.0804 9.40368 13.6338 9.86987 14.1C10.3361 14.5662 10.8895 14.936 11.4986 15.1883C12.1077 15.4406 12.7606 15.5705 13.4199 15.5705C14.7514 15.5705 16.0284 15.0415 16.9699 14.1L20.5299 10.55C21 10.085 21.3733 9.53138 21.628 8.92116C21.8827 8.31094 22.0139 7.65626 22.0139 6.995C22.0139 6.33375 21.8827 5.67906 21.628 5.06884C21.3733 4.45862 21 3.90499 20.5299 3.44V3.47Z" fill="white"/>
<path d="M14.1301 9.87C13.6446 9.37653 13.0578 8.99438 12.4101 8.75L12.0001 9.16C11.8126 9.34593 11.6638 9.56713 11.5623 9.81085C11.4608 10.0546 11.4085 10.316 11.4085 10.58C11.4085 10.844 11.4608 11.1054 11.5623 11.3492C11.6638 11.5929 11.8126 11.8141 12.0001 12C12.1875 12.1859 12.3363 12.4071 12.4379 12.6508C12.5394 12.8946 12.5917 13.156 12.5917 13.42C12.5917 13.684 12.5394 13.9454 12.4379 14.1892C12.3363 14.4329 12.1875 14.6541 12.0001 14.84L8.45009 18.4C8.07215 18.7779 7.55957 18.9903 7.02509 18.9903C6.49061 18.9903 5.97802 18.7779 5.60009 18.4C5.22215 18.0221 5.00983 17.5095 5.00983 16.975C5.00983 16.4405 5.22215 15.9279 5.60009 15.55L8.75009 12.41C8.28752 11.2338 8.28752 9.92615 8.75009 8.75C8.09169 8.99051 7.49425 9.37287 7.00009 9.87L3.47009 13.42C2.52724 14.3628 1.99756 15.6416 1.99756 16.975C1.99756 18.3084 2.52724 19.5872 3.47009 20.53C4.41293 21.4728 5.6917 22.0025 7.02509 22.0025C8.35847 22.0025 9.63724 21.4728 10.5801 20.53L14.1301 17C14.6033 16.5347 14.9791 15.9798 15.2356 15.3677C15.4922 14.7557 15.6243 14.0987 15.6243 13.435C15.6243 12.7713 15.4922 12.1143 15.2356 11.5023C14.9791 10.8902 14.6033 10.3353 14.1301 9.87Z" fill="white"/>
</svg>
