
<svg width="20" height="18" viewBox="0 0 20 18" fill="white" xmlns="http://www.w3.org/2000/svg">
<path opacity="0.3" d="M15.0002 5.54006L10.2702 2.82006L6.05017 0.380059C5.72518 0.19125 5.35602 0.0917969 4.98017 0.0917969C4.60432 0.0917969 4.23516 0.19125 3.91017 0.380059L1.00017 2.14006C0.693736 2.32736 0.440738 2.59047 0.26558 2.904C0.0904209 3.21754 -0.000987996 3.57092 0.00016984 3.93006V13.6401C-0.00445148 14.0026 0.0853085 14.3601 0.260633 14.6774C0.435957 14.9947 0.690814 15.261 1.00017 15.4501L3.84017 17.1001C4.1633 17.289 4.53086 17.3886 4.90517 17.3886C5.27948 17.3886 5.64704 17.289 5.97017 17.1001L10.2702 14.6201L15.0002 11.9101V5.54006Z" fill="white"/>
<path d="M14 0.380019L10 2.67002L15 5.54002V11.91L5 5.54002V11.91L9.72 14.64L14.03 17.12C14.3513 17.3091 14.7172 17.4088 15.09 17.4088C15.4628 17.4088 15.8287 17.3091 16.15 17.12L19 15.45C19.3094 15.261 19.5642 14.9947 19.7395 14.6774C19.9149 14.36 20.0046 14.0025 20 13.64V3.93002C20.0012 3.57088 19.9097 3.2175 19.7346 2.90396C19.5594 2.59043 19.3064 2.32732 19 2.14002L16.12 0.400019C15.7991 0.211871 15.4346 0.111026 15.0627 0.107517C14.6907 0.104008 14.3244 0.197958 14 0.380019Z" fill="white"/>
</svg>
