
<svg width="20" height="21" viewBox="0 0 20 21" fill="white" xmlns="http://www.w3.org/2000/svg">
<g opacity="0.3">
<path d="M18.0001 0.999965L14.4601 1.63997C12.6672 2.11886 11.0366 3.07233 9.74007 4.39997C7.67007 6.55997 5.36007 11.19 4.44007 13.12C4.32218 13.3749 4.28677 13.6603 4.33875 13.9363C4.39073 14.2124 4.52752 14.4653 4.73007 14.66L6.79007 16.66C6.99038 16.855 7.24745 16.9814 7.52422 17.0209C7.80098 17.0605 8.08316 17.0111 8.33007 16.88C11.3161 15.3706 14.118 13.5217 16.6801 11.37C18.0317 10.0013 18.944 8.26032 19.3001 6.36996L19.9401 2.99996C19.9918 2.73143 19.978 2.45438 19.8998 2.19232C19.8217 1.93026 19.6814 1.69093 19.491 1.49463C19.3006 1.29834 19.0657 1.15087 18.8061 1.06476C18.5466 0.978643 18.27 0.956416 18.0001 0.999965ZM15.6401 8.18996C15.3675 8.47806 15.0153 8.6786 14.6285 8.76608C14.2416 8.85357 13.8375 8.82405 13.4674 8.68129C13.0974 8.53852 12.7782 8.28895 12.5503 7.9643C12.3224 7.63965 12.1963 7.25458 12.1878 6.85804C12.1793 6.4615 12.289 6.07139 12.5027 5.73731C12.7165 5.40323 13.0248 5.14026 13.3884 4.98183C13.7521 4.8234 14.1546 4.77666 14.5448 4.84755C14.9351 4.91844 15.2954 5.10377 15.5801 5.37996C15.9576 5.74631 16.1757 6.24668 16.1869 6.77265C16.1981 7.29862 16.0017 7.80783 15.6401 8.18996Z" fill="white"/>
</g>
<path d="M7.36 7.65996L4.58 12.87L0 12.76C0 12.76 3.83 6.90996 7.36 7.65996ZM14.08 13.4L9.08 16.46L9.39 21C9.39 21 15 16.88 14.08 13.4ZM14.18 4.82996C13.7844 4.82996 13.3978 4.94725 13.0689 5.16702C12.74 5.38678 12.4836 5.69914 12.3322 6.06459C12.1809 6.43004 12.1413 6.83217 12.2184 7.22014C12.2956 7.6081 12.4861 7.96446 12.7658 8.24417C13.0455 8.52387 13.4019 8.71436 13.7898 8.79153C14.1778 8.8687 14.5799 8.82909 14.9454 8.67772C15.3108 8.52634 15.6232 8.26999 15.8429 7.9411C16.0627 7.6122 16.18 7.22552 16.18 6.82996C16.18 6.29952 15.9693 5.79082 15.5942 5.41574C15.2191 5.04067 14.7104 4.82996 14.18 4.82996Z" fill="white"/>
</svg>
