
<svg width="211" height="50" viewBox="0 0 211 50" fill="none" xmlns="http://www.w3.org/2000/svg">
<path d="M184.778 16.832C185.95 16.832 186.914 16.2228 187.044 15.4359L188.201 2.35443C188.201 1.06145 186.686 0 184.782 0C182.879 0 181.366 1.06145 181.366 2.35466L182.522 15.4359C182.649 16.2226 183.613 16.832 184.782 16.832H184.778ZM177.708 20.9179C178.296 19.9045 178.251 18.7656 177.632 18.2596L166.88 10.7172C165.762 10.0698 164.086 10.8491 163.134 12.4989C162.18 14.1466 162.349 15.9869 163.464 16.6345L175.37 22.178C176.114 22.4538 177.129 21.9229 177.712 20.9102L177.708 20.9179ZM191.854 20.9109C192.441 21.9236 193.451 22.4548 194.196 22.1787L206.102 16.6352C207.223 15.9878 207.383 14.1473 206.437 12.4996C205.481 10.8514 203.802 10.0705 202.687 10.7179L191.934 18.2603C191.319 18.7656 191.274 19.9055 191.858 20.9186L191.854 20.9109ZM184.778 33.1727C185.95 33.1727 186.914 33.7767 187.044 34.5644L188.201 47.644C188.201 48.9409 186.686 50 184.782 50C182.879 50 181.366 48.9409 181.366 47.644L182.522 34.5644C182.649 33.7767 183.613 33.1727 184.782 33.1727H184.778ZM191.854 29.0858C192.441 28.0703 193.451 27.5438 194.196 27.823L206.102 33.3627C207.223 34.0108 207.383 35.8529 206.437 37.502C205.481 39.1449 203.802 39.9279 202.687 39.2814L191.934 31.746C191.319 31.2367 191.274 30.0962 191.858 29.0837H191.853M177.708 29.0844C178.296 30.0962 178.251 31.2367 177.632 31.7469L166.88 39.2821C165.762 39.9286 164.086 39.1456 163.134 37.5027C162.18 35.8536 162.349 34.0115 163.464 33.3634L175.37 27.8237C176.114 27.5445 177.129 28.071 177.712 29.0868H177.708" fill="#FDBB30"/>
<path d="M116.956 31.7222C116.956 32.1237 116.92 32.5377 116.811 32.9013C116.354 34.4116 114.791 35.6887 112.835 35.6887C111.203 35.6887 109.908 34.7621 109.908 32.8052C109.908 29.8101 113.204 28.983 116.957 29.0037L116.956 31.722V31.7222ZM122.842 26.5027C122.842 21.564 120.732 17.2183 113.601 17.2183C109.941 17.2183 107.036 18.2464 105.451 19.1627L106.612 23.1331C108.061 22.2182 110.371 21.4608 112.556 21.4608C116.173 21.4508 116.765 23.5091 116.765 24.8263V25.1381C108.881 25.1264 103.898 27.8564 103.898 33.4176C103.898 36.8157 106.436 39.9984 110.848 39.9984C113.56 39.9984 115.831 38.9162 117.19 37.181H117.324C117.324 37.181 118.223 40.9483 123.187 39.5069C122.928 37.9402 122.843 36.2677 122.843 34.2566L122.842 26.5027M0 10.4925C0 10.4925 5.15205 31.6034 5.97475 35.0296C6.93444 39.0287 8.66409 40.5009 13.6486 39.5069L16.8654 26.4189C17.6811 23.1664 18.2269 20.8475 18.7525 17.5422H18.844C19.213 20.8825 19.7365 23.1765 20.4077 26.4297C20.4077 26.4297 21.7166 32.3718 22.388 35.4917C23.0602 38.6107 24.931 40.5777 29.814 39.5069L37.4794 10.4916H31.2923L28.6741 23.0369C27.9702 26.6871 27.3321 29.5426 26.8397 32.8812H26.7522C26.3048 29.572 25.7351 26.833 25.0202 23.2757L22.2965 10.4916H15.849L12.9339 22.9534C12.1089 26.7413 11.3352 29.7986 10.8451 33.0262H10.7559C10.2528 29.987 9.58294 26.1429 8.85803 22.4779C8.85803 22.4779 7.12745 13.5641 6.51878 10.4916L0 10.4925ZM49.1829 31.7222C49.1829 32.1237 49.1472 32.5377 49.0356 32.9013C48.5805 34.4116 47.0159 35.6887 45.0596 35.6887C43.4283 35.6887 42.1346 34.7621 42.1346 32.8052C42.1346 29.8101 45.4303 28.983 49.1836 29.0037L49.1829 31.722V31.7222ZM55.0683 26.5027C55.0683 21.564 52.958 17.2183 45.8289 17.2183C42.1677 17.2183 39.2604 18.2464 37.6757 19.1627L38.8356 23.1331C40.2845 22.2182 42.5941 21.4608 44.7805 21.4608C48.3999 21.4508 48.9922 23.5091 48.9922 24.8263V25.1381C41.1049 25.1264 36.1234 27.8564 36.1234 33.4176C36.1234 36.8157 38.6604 39.9984 43.0695 39.9984C45.7845 39.9984 48.054 38.9162 49.4147 37.181H49.5472C49.5472 37.181 50.449 40.9483 55.4123 39.5069C55.1528 37.9402 55.0683 36.2677 55.0683 34.2566V26.5027ZM64.8907 33.3478V10.4925H58.9976V39.5078H64.8907V33.3478ZM141.983 10.4925V31.8966C141.983 34.8489 142.539 36.9151 143.726 38.1796C144.766 39.2852 146.475 40.0008 148.524 40.0008C150.267 40.0008 151.98 39.6682 152.789 39.3683L152.713 34.7645C152.111 34.9115 151.42 35.0305 150.475 35.0305C148.467 35.0305 147.795 33.7441 147.795 31.0949V22.9053H152.927V17.353H147.795V10.4925H141.983ZM126.772 17.7105V39.5078H132.851V28.3472C132.851 27.7439 132.887 27.2183 132.983 26.7375C133.432 24.3985 135.22 22.9053 137.788 22.9053C138.492 22.9053 138.996 22.9818 139.542 23.0593V17.353C139.084 17.2617 138.773 17.219 138.203 17.219C135.934 17.219 133.353 18.6828 132.27 21.8228H132.106V17.7105H126.772ZM69.017 17.7105V39.5078H74.9397V26.7259C74.9397 26.126 75.0102 25.4917 75.2179 24.9418C75.7087 23.6549 76.9064 22.1477 78.8177 22.1477C81.2087 22.1477 82.3253 24.1681 82.3253 27.0841V39.5062H88.2433V26.5686C88.2433 25.9963 88.3215 25.3064 88.4907 24.8018C88.9766 23.3371 90.2668 22.1461 92.0438 22.1461C94.4666 22.1461 95.6296 24.131 95.6296 27.5633V39.5055H101.552V26.6668C101.552 19.8969 98.1138 17.2169 94.2325 17.2169C92.5152 17.2169 91.1583 17.647 89.9312 18.399C88.9008 19.0338 87.9765 19.9333 87.1702 21.1157H87.0826C86.1468 18.7666 83.9447 17.2181 81.0752 17.2181C77.3889 17.2181 75.732 19.0868 74.7271 20.6715H74.6388V17.7098H69.017" fill="#1A75CF"/>
</svg>
